{
  "source": "C:\\Users\\Peter\\Desktop\\stuff\\MIUN\\quantitative_research\\video_compression\\videos\\BVI-HD\\BVI-HD_CDVL_videos\\ORIG\\Hamster_1920x1080_60fps.mp4",
  "output": "C:\\Users\\Peter\\Desktop\\stuff\\MIUN\\quantitative_research\\video_compression\\compressed_videos\\BVI-HD\\hevc\\1\\Hamster_1920x1080_60fps_hevc.mp4",
  "codec": "hevc",
  "ok": "Input #0, mov,mp4,m4a,3gp,3g2,mj2, from 'C:\\Users\\Peter\\Desktop\\stuff\\MIUN\\quantitative_research\\video_compression\\videos\\BVI-HD\\BVI-HD_CDVL_videos\\ORIG\\Hamster_1920x1080_60fps.mp4':\n  Metadata:\n    major_brand     : isom\n    minor_version   : 512\n    compatible_brands: isomiso2avc1mp41\n    encoder         : Lavf54.28.101\n  Duration: 00:00:05.00, start: 0.000000, bitrate: 208485 kb/s\n  Stream #0:0[0x1](und): Video: h264 (High 4:4:4 Predictive) (avc1 / 0x31637661), yuv420p(progressive), 1920x1080, 208481 kb/s, 60 fps, 60 tbr, 60 tbn (default)\n    Metadata:\n      handler_name    : VideoHandler\n      vendor_id       : [0][0][0][0]\n[out#0/mp4 @ 0000026ed7dbae00] Codec AVOption b:a (set bitrate (in bits/s)) has not been used for any stream. The most likely reason is either wrong type (e.g. a video option with no video streams) or that it is a private option of some decoder which was not actually used for any stream.\nStream mapping:\n  Stream #0:0 -> #0:0 (h264 (native) -> hevc (libx265))\nPress [q] to stop, [?] for help\n[libx265 @ 0000026ed84207c0] Unknown option: \"aq-mode.\nx265 [info]: HEVC encoder version 4.1+190-8f11c33ac\nx265 [info]: build info [Windows][GCC 15.1.0][64 bit] 10bit\nx265 [info]: using cpu capabilities: MMX2 SSE2Fast LZCNT SSSE3 SSE4.2 AVX FMA3 BMI2 AVX2\nx265 [info]: Main 10 profile, Level-4.1 (Main tier)\nx265 [info]: Thread pool created using 12 threads\nx265 [info]: Slices                              : 1\nx265 [info]: frame threads / pool features       : 3 / wpp(17 rows)\nx265 [info]: Coding QT: max CU size, min CU size : 64 / 8\nx265 [info]: Residual QT: max TU size, max depth : 32 / 1 inter / 1 intra\nx265 [info]: ME / range / subpel / merge         : star / 57 / 3 / 3\nx265 [info]: Keyframe min / max / scenecut / bias  : 25 / 250 / 40 / 5.00 \nx265 [info]: Lookahead / bframes / badapt        : 25 / 4 / 2\nx265 [info]: b-pyramid / weightp / weightb       : 1 / 1 / 0\nx265 [info]: References / ref-limit  cu / depth  : 4 / on / on\nx265 [info]: AQ: mode / str / qg-size / cu-tree  : 2 / 1.0 / 32 / 1\nx265 [info]: Rate Control / qCompress            : ABR-1000 kbps / 0.60\nx265 [info]: VBV/HRD buffer / max-rate / init    : 1000 / 1000 / 0.750\nx265 [info]: tools: rect limit-modes rd=4 psy-rd=2.00 rdoq=2 psy-rdoq=1.00\nx265 [info]: tools: rskip mode=1 signhide tmvp strong-intra-smoothing lslices=4\nx265 [info]: tools: deblock sao dhdr10-info\nOutput #0, mp4, to 'C:\\Users\\Peter\\Desktop\\stuff\\MIUN\\quantitative_research\\video_compression\\compressed_videos\\BVI-HD\\hevc\\1\\Hamster_1920x1080_60fps_hevc.mp4':\n  Metadata:\n    major_brand     : isom\n    minor_version   : 512\n    compatible_brands: isomiso2avc1mp41\n    encoder         : Lavf62.3.100\n  Stream #0:0(und): Video: hevc (hev1 / 0x31766568), yuv420p10le(tv, progressive), 1920x1080, q=2-31, 1000 kb/s, 60 fps, 15360 tbn (default)\n    Metadata:\n      encoder         : Lavc62.11.100 libx265\n      handler_name    : VideoHandler\n      vendor_id       : [0][0][0][0]\n    Side data:\n      cpb: bitrate max/min/avg: 1000000/0/1000000 buffer size: 1000000 vbv_delay: N/A\nframe=    0 fps=0.0 q=0.0 size=       0KiB time=N/A bitrate=N/A speed=N/A elapsed=0:00:01.06    \nframe=    0 fps=0.0 q=0.0 size=       0KiB time=N/A bitrate=N/A speed=N/A elapsed=0:00:01.60    \nframe=    0 fps=0.0 q=0.0 size=       0KiB time=N/A bitrate=N/A speed=N/A elapsed=0:00:02.18    \nframe=    0 fps=0.0 q=0.0 size=       0KiB time=N/A bitrate=N/A speed=N/A elapsed=0:00:02.69    \nframe=    0 fps=0.0 q=0.0 size=       0KiB time=N/A bitrate=N/A speed=N/A elapsed=0:00:03.21    \nframe=    0 fps=0.0 q=0.0 size=       0KiB time=N/A bitrate=N/A speed=N/A elapsed=0:00:03.72    \nframe=    0 fps=0.0 q=0.0 size=       0KiB time=N/A bitrate=N/A speed=N/A elapsed=0:00:04.30    \nframe=    0 fps=0.0 q=0.0 size=       0KiB time=N/A bitrate=N/A speed=N/A elapsed=0:00:04.87    \nframe=    0 fps=0.0 q=0.0 size=       0KiB time=N/A bitrate=N/A speed=N/A elapsed=0:00:05.42    \nframe=    0 fps=0.0 q=0.0 size=       0KiB time=N/A bitrate=N/A speed=N/A elapsed=0:00:05.96    \nframe=    0 fps=0.0 q=0.0 size=       0KiB time=N/A bitrate=N/A speed=N/A elapsed=0:00:06.54    \nframe=    0 fps=0.0 q=0.0 size=       0KiB time=N/A bitrate=N/A speed=N/A elapsed=0:00:07.07    \nframe=    0 fps=0.0 q=0.0 size=       0KiB time=N/A bitrate=N/A speed=N/A elapsed=0:00:07.60    \nframe=    0 fps=0.0 q=0.0 size=       0KiB time=N/A bitrate=N/A speed=N/A elapsed=0:00:08.11    \nframe=    0 fps=0.0 q=0.0 size=       0KiB time=N/A bitrate=N/A speed=N/A elapsed=0:00:08.65    \nframe=    0 fps=0.0 q=0.0 size=       0KiB time=N/A bitrate=N/A speed=N/A elapsed=0:00:09.20    \nframe=    0 fps=0.0 q=0.0 size=       0KiB time=N/A bitrate=N/A speed=N/A elapsed=0:00:09.75    \nframe=    0 fps=0.0 q=0.0 size=       0KiB time=N/A bitrate=N/A speed=N/A elapsed=0:00:10.32    \nframe=    0 fps=0.0 q=0.0 size=       0KiB time=N/A bitrate=N/A speed=N/A elapsed=0:00:10.87    \nframe=    0 fps=0.0 q=0.0 size=       0KiB time=N/A bitrate=N/A speed=N/A elapsed=0:00:11.42    \nframe=    0 fps=0.0 q=0.0 size=       0KiB time=N/A bitrate=N/A speed=N/A elapsed=0:00:11.98    \nframe=    0 fps=0.0 q=0.0 size=       0KiB time=N/A bitrate=N/A speed=N/A elapsed=0:00:12.51    \nframe=    0 fps=0.0 q=0.0 size=       0KiB time=N/A bitrate=N/A speed=N/A elapsed=0:00:13.03    \nframe=    1 fps=0.1 q=46.1 size=       0KiB time=-00:00:00.01 bitrate=N/A speed=N/A elapsed=0:00:13.55    \nframe=    2 fps=0.1 q=48.2 size=       0KiB time=00:00:00.00 bitrate=N/A speed=   0x elapsed=0:00:14.12    \nframe=    2 fps=0.1 q=48.2 size=       0KiB time=00:00:00.00 bitrate=N/A speed=   0x elapsed=0:00:14.64    \nframe=    3 fps=0.2 q=49.6 size=       0KiB time=00:00:00.01 bitrate=  21.1kbits/s speed=0.0011x elapsed=0:00:15.17    \nframe=    3 fps=0.2 q=49.6 size=       0KiB time=00:00:00.01 bitrate=  21.1kbits/s speed=0.00106x elapsed=0:00:15.69    \nframe=    3 fps=0.2 q=49.6 size=       0KiB time=00:00:00.01 bitrate=  21.1kbits/s speed=0.00103x elapsed=0:00:16.22    \nframe=    3 fps=0.2 q=49.6 size=       0KiB time=00:00:00.01 bitrate=  21.1kbits/s speed=0.000996x elapsed=0:00:16.74    \nframe=    4 fps=0.2 q=49.9 size=       0KiB time=00:00:00.03 bitrate=  10.6kbits/s speed=0.00193x elapsed=0:00:17.27    \nframe=    4 fps=0.2 q=49.9 size=       0KiB time=00:00:00.03 bitrate=  10.6kbits/s speed=0.00187x elapsed=0:00:17.80    \nframe=    4 fps=0.2 q=49.9 size=       0KiB time=00:00:00.03 bitrate=  10.6kbits/s speed=0.00182x elapsed=0:00:18.33    \nframe=    4 fps=0.2 q=49.9 size=       0KiB time=00:00:00.03 bitrate=  10.6kbits/s speed=0.00177x elapsed=0:00:18.87    \nframe=    4 fps=0.2 q=49.9 size=       0KiB time=00:00:00.03 bitrate=  10.6kbits/s speed=0.00171x elapsed=0:00:19.44    \nframe=    5 fps=0.3 q=48.7 size=       0KiB time=00:00:00.05 bitrate=   7.0kbits/s speed=0.0025x elapsed=0:00:19.96    \nframe=    5 fps=0.2 q=48.7 size=       0KiB time=00:00:00.05 bitrate=   7.0kbits/s speed=0.00244x elapsed=0:00:20.51    \nframe=    6 fps=0.3 q=44.2 size=       0KiB time=00:00:00.05 bitrate=   7.0kbits/s speed=0.00238x elapsed=0:00:21.05    \nframe=    7 fps=0.3 q=46.2 size=       0KiB time=00:00:00.08 bitrate=   4.2kbits/s speed=0.00386x elapsed=0:00:21.60    \nframe=    7 fps=0.3 q=46.2 size=       0KiB time=00:00:00.08 bitrate=   4.2kbits/s speed=0.00377x elapsed=0:00:22.13    \nframe=    8 fps=0.4 q=45.8 size=       0KiB time=00:00:00.10 bitrate=   3.5kbits/s speed=0.00441x elapsed=0:00:22.68    \nframe=    9 fps=0.4 q=47.0 size=       0KiB time=00:00:00.11 bitrate=   3.0kbits/s speed=0.00503x elapsed=0:00:23.20    \nframe=    9 fps=0.4 q=47.0 size=       0KiB time=00:00:00.11 bitrate=   3.0kbits/s speed=0.00491x elapsed=0:00:23.77    \nframe=    9 fps=0.4 q=47.0 size=       0KiB time=00:00:00.11 bitrate=   3.0kbits/s speed=0.0048x elapsed=0:00:24.32    \nframe=    9 fps=0.4 q=47.0 size=       0KiB time=00:00:00.11 bitrate=   3.0kbits/s speed=0.00469x elapsed=0:00:24.85    \nframe=   10 fps=0.4 q=47.4 size=       0KiB time=00:00:00.13 bitrate=   2.6kbits/s speed=0.00525x elapsed=0:00:25.38    \nframe=   10 fps=0.4 q=47.4 size=       0KiB time=00:00:00.13 bitrate=   2.6kbits/s speed=0.00514x elapsed=0:00:25.91    \nframe=   10 fps=0.4 q=47.4 size=       0KiB time=00:00:00.13 bitrate=   2.6kbits/s speed=0.00504x elapsed=0:00:26.47    \nframe=   10 fps=0.4 q=47.4 size=       0KiB time=00:00:00.13 bitrate=   2.6kbits/s speed=0.00494x elapsed=0:00:26.98    \nframe=   11 fps=0.4 q=42.0 size=       0KiB time=00:00:00.15 bitrate=   2.3kbits/s speed=0.00545x elapsed=0:00:27.51    \nframe=   11 fps=0.4 q=42.0 size=       0KiB time=00:00:00.15 bitrate=   2.3kbits/s speed=0.00535x elapsed=0:00:28.04    \nframe=   11 fps=0.4 q=42.0 size=       0KiB time=00:00:00.15 bitrate=   2.3kbits/s speed=0.00524x elapsed=0:00:28.60    \nframe=   11 fps=0.4 q=42.0 size=       0KiB time=00:00:00.15 bitrate=   2.3kbits/s speed=0.00515x elapsed=0:00:29.12    \nframe=   12 fps=0.4 q=46.4 size=       0KiB time=00:00:00.16 bitrate=   2.1kbits/s speed=0.00562x elapsed=0:00:29.66    \nframe=   12 fps=0.4 q=46.4 size=       0KiB time=00:00:00.16 bitrate=   2.1kbits/s speed=0.00552x elapsed=0:00:30.19    \nframe=   12 fps=0.4 q=46.4 size=       0KiB time=00:00:00.16 bitrate=   2.1kbits/s speed=0.00542x elapsed=0:00:30.73    \nframe=   13 fps=0.4 q=47.8 size=       0KiB time=00:00:00.18 bitrate=   1.9kbits/s speed=0.00586x elapsed=0:00:31.28    \nframe=   13 fps=0.4 q=47.8 size=       0KiB time=00:00:00.18 bitrate=   1.9kbits/s speed=0.00576x elapsed=0:00:31.82    \nframe=   13 fps=0.4 q=47.8 size=       0KiB time=00:00:00.18 bitrate=   1.9kbits/s speed=0.00566x elapsed=0:00:32.37    \nframe=   14 fps=0.4 q=47.0 size=       0KiB time=00:00:00.20 bitrate=   1.8kbits/s speed=0.00608x elapsed=0:00:32.91    \nframe=   14 fps=0.4 q=47.0 size=       0KiB time=00:00:00.20 bitrate=   1.8kbits/s speed=0.00598x elapsed=0:00:33.46    \nframe=   15 fps=0.4 q=42.2 size=       0KiB time=00:00:00.21 bitrate=   1.6kbits/s speed=0.00638x elapsed=0:00:33.97    \nframe=   16 fps=0.5 q=43.2 size=       0KiB time=00:00:00.23 bitrate=   1.5kbits/s speed=0.00676x elapsed=0:00:34.49    \nframe=   16 fps=0.5 q=43.2 size=       0KiB time=00:00:00.23 bitrate=   1.5kbits/s speed=0.00666x elapsed=0:00:35.03    \nframe=   16 fps=0.4 q=43.2 size=       0KiB time=00:00:00.23 bitrate=   1.5kbits/s speed=0.00656x elapsed=0:00:35.56    \nframe=   16 fps=0.4 q=43.2 size=       0KiB time=00:00:00.23 bitrate=   1.5kbits/s speed=0.00646x elapsed=0:00:36.09    \nframe=   17 fps=0.5 q=46.1 size=       0KiB time=00:00:00.25 bitrate=   1.4kbits/s speed=0.00683x elapsed=0:00:36.62    \nframe=   17 fps=0.5 q=46.1 size=       0KiB time=00:00:00.25 bitrate=   1.4kbits/s speed=0.00673x elapsed=0:00:37.14    \nframe=   18 fps=0.5 q=45.8 size=       0KiB time=00:00:00.26 bitrate=   1.3kbits/s speed=0.00707x elapsed=0:00:37.70    \nframe=   18 fps=0.5 q=45.8 size=       0KiB time=00:00:00.26 bitrate=   1.3kbits/s speed=0.00697x elapsed=0:00:38.23    \nframe=   18 fps=0.5 q=45.8 size=       0KiB time=00:00:00.26 bitrate=   1.3kbits/s speed=0.00688x elapsed=0:00:38.75    \nframe=   18 fps=0.5 q=45.8 size=       0KiB time=00:00:00.26 bitrate=   1.3kbits/s speed=0.00678x elapsed=0:00:39.34    \nframe=   19 fps=0.5 q=46.1 size=       0KiB time=00:00:00.28 bitrate=   1.2kbits/s speed=0.0071x elapsed=0:00:39.88    \nframe=   20 fps=0.5 q=41.8 size=       0KiB time=00:00:00.30 bitrate=   1.2kbits/s speed=0.00742x elapsed=0:00:40.45    \nframe=   21 fps=0.5 q=44.3 size=       0KiB time=00:00:00.31 bitrate=   1.1kbits/s speed=0.00772x elapsed=0:00:40.99    \nframe=   21 fps=0.5 q=44.3 size=       0KiB time=00:00:00.31 bitrate=   1.1kbits/s speed=0.00762x elapsed=0:00:41.55    \nframe=   21 fps=0.5 q=44.3 size=       0KiB time=00:00:00.31 bitrate=   1.1kbits/s speed=0.00751x elapsed=0:00:42.16    \nframe=   21 fps=0.5 q=44.3 size=       0KiB time=00:00:00.31 bitrate=   1.1kbits/s speed=0.00741x elapsed=0:00:42.75    \nframe=   21 fps=0.5 q=44.3 size=       0KiB time=00:00:00.31 bitrate=   1.1kbits/s speed=0.00732x elapsed=0:00:43.28    \nframe=   22 fps=0.5 q=46.1 size=       0KiB time=00:00:00.33 bitrate=   1.1kbits/s speed=0.00761x elapsed=0:00:43.81    \nframe=   22 fps=0.5 q=46.1 size=       0KiB time=00:00:00.33 bitrate=   1.1kbits/s speed=0.00752x elapsed=0:00:44.34    \nframe=   23 fps=0.5 q=45.6 size=       0KiB time=00:00:00.35 bitrate=   1.0kbits/s speed=0.0078x elapsed=0:00:44.87    \nframe=   24 fps=0.5 q=41.2 size=       0KiB time=00:00:00.36 bitrate=   1.0kbits/s speed=0.00808x elapsed=0:00:45.39    \nframe=   25 fps=0.5 q=44.0 size=       0KiB time=00:00:00.38 bitrate=   0.9kbits/s speed=0.00834x elapsed=0:00:45.96    \nframe=   25 fps=0.5 q=44.0 size=       0KiB time=00:00:00.38 bitrate=   0.9kbits/s speed=0.00825x elapsed=0:00:46.48    \nframe=   26 fps=0.6 q=45.4 size=       0KiB time=00:00:00.40 bitrate=   0.9kbits/s speed=0.00851x elapsed=0:00:47.02    \nframe=   26 fps=0.5 q=45.4 size=       0KiB time=00:00:00.40 bitrate=   0.9kbits/s speed=0.00841x elapsed=0:00:47.55    \nframe=   27 fps=0.6 q=45.4 size=       0KiB time=00:00:00.41 bitrate=   0.8kbits/s speed=0.00867x elapsed=0:00:48.07    \nframe=   27 fps=0.6 q=45.4 size=       0KiB time=00:00:00.41 bitrate=   0.8kbits/s speed=0.00857x elapsed=0:00:48.59    \nframe=   28 fps=0.6 q=40.7 size=       0KiB time=00:00:00.43 bitrate=   0.8kbits/s speed=0.00882x elapsed=0:00:49.13    \nframe=   29 fps=0.6 q=43.1 size=       0KiB time=00:00:00.45 bitrate=   0.8kbits/s speed=0.00906x elapsed=0:00:49.65    \nframe=   29 fps=0.6 q=43.1 size=       0KiB time=00:00:00.45 bitrate=   0.8kbits/s speed=0.00897x elapsed=0:00:50.18    \nframe=   30 fps=0.6 q=45.2 size=       0KiB time=00:00:00.46 bitrate=   0.8kbits/s speed=0.0092x elapsed=0:00:50.70    \nframe=   30 fps=0.6 q=45.2 size=       0KiB time=00:00:00.46 bitrate=   0.8kbits/s speed=0.00911x elapsed=0:00:51.22    \nframe=   31 fps=0.6 q=45.3 size=       0KiB time=00:00:00.48 bitrate=   0.7kbits/s speed=0.00934x elapsed=0:00:51.74    \nframe=   32 fps=0.6 q=41.0 size=       0KiB time=00:00:00.50 bitrate=   0.7kbits/s speed=0.00956x elapsed=0:00:52.27    \nframe=   33 fps=0.6 q=43.5 size=       0KiB time=00:00:00.51 bitrate=   0.7kbits/s speed=0.00979x elapsed=0:00:52.79    \nframe=   34 fps=0.6 q=45.9 size=       0KiB time=00:00:00.53 bitrate=   0.7kbits/s speed=0.01x elapsed=0:00:53.32    \nframe=   34 fps=0.6 q=45.9 size=       0KiB time=00:00:00.53 bitrate=   0.7kbits/s speed=0.00991x elapsed=0:00:53.84    \nframe=   35 fps=0.6 q=45.6 size=       0KiB time=00:00:00.55 bitrate=   0.6kbits/s speed=0.0101x elapsed=0:00:54.35    \nframe=   36 fps=0.7 q=40.8 size=       0KiB time=00:00:00.56 bitrate=   0.6kbits/s speed=0.0103x elapsed=0:00:54.88    \nframe=   37 fps=0.7 q=43.8 size=       0KiB time=00:00:00.58 bitrate=   0.6kbits/s speed=0.0105x elapsed=0:00:55.40    \nframe=   38 fps=0.7 q=46.4 size=       0KiB time=00:00:00.60 bitrate=   0.6kbits/s speed=0.0107x elapsed=0:00:55.91    \nframe=   38 fps=0.7 q=46.4 size=       0KiB time=00:00:00.60 bitrate=   0.6kbits/s speed=0.0106x elapsed=0:00:56.46    \nframe=   39 fps=0.7 q=45.6 size=       0KiB time=00:00:00.61 bitrate=   0.6kbits/s speed=0.0108x elapsed=0:00:56.98    \nframe=   40 fps=0.7 q=41.2 size=       0KiB time=00:00:00.63 bitrate=   0.6kbits/s speed=0.011x elapsed=0:00:57.48    \nframe=   41 fps=0.7 q=43.5 size=       0KiB time=00:00:00.65 bitrate=   0.5kbits/s speed=0.0112x elapsed=0:00:58.00    \nframe=   42 fps=0.7 q=45.6 size=       0KiB time=00:00:00.66 bitrate=   0.5kbits/s speed=0.0114x elapsed=0:00:58.54    \nframe=   42 fps=0.7 q=45.6 size=       0KiB time=00:00:00.66 bitrate=   0.5kbits/s speed=0.0113x elapsed=0:00:59.06    \nframe=   42 fps=0.7 q=45.6 size=       0KiB time=00:00:00.66 bitrate=   0.5kbits/s speed=0.0112x elapsed=0:00:59.58    \nframe=   43 fps=0.7 q=45.5 size=       0KiB time=00:00:00.68 bitrate=   0.5kbits/s speed=0.0114x elapsed=0:01:00.13    \nframe=   43 fps=0.7 q=45.5 size=       0KiB time=00:00:00.68 bitrate=   0.5kbits/s speed=0.0113x elapsed=0:01:00.65    \nframe=   44 fps=0.7 q=40.7 size=       0KiB time=00:00:00.70 bitrate=   0.5kbits/s speed=0.0114x elapsed=0:01:01.17    \nframe=   45 fps=0.7 q=44.2 size=       0KiB time=00:00:00.71 bitrate=   0.5kbits/s speed=0.0116x elapsed=0:01:01.68    \nframe=   46 fps=0.7 q=45.2 size=       0KiB time=00:00:00.73 bitrate=   0.5kbits/s speed=0.0118x elapsed=0:01:02.21    \nframe=   46 fps=0.7 q=45.2 size=       0KiB time=00:00:00.73 bitrate=   0.5kbits/s speed=0.0117x elapsed=0:01:02.72    \nframe=   47 fps=0.7 q=45.1 size=       0KiB time=00:00:00.75 bitrate=   0.5kbits/s speed=0.0119x elapsed=0:01:03.24    \nframe=   47 fps=0.7 q=45.1 size=       0KiB time=00:00:00.75 bitrate=   0.5kbits/s speed=0.0118x elapsed=0:01:03.77    \nframe=   48 fps=0.7 q=45.4 size=       0KiB time=00:00:00.76 bitrate=   0.5kbits/s speed=0.0119x elapsed=0:01:04.31    \nframe=   48 fps=0.7 q=45.4 size=       0KiB time=00:00:00.76 bitrate=   0.5kbits/s speed=0.0118x elapsed=0:01:04.83    \nframe=   50 fps=0.8 q=43.5 size=       0KiB time=00:00:00.80 bitrate=   0.4kbits/s speed=0.0122x elapsed=0:01:05.35    \nframe=   50 fps=0.8 q=43.5 size=       0KiB time=00:00:00.80 bitrate=   0.4kbits/s speed=0.0121x elapsed=0:01:05.86    \nframe=   50 fps=0.8 q=43.5 size=       0KiB time=00:00:00.80 bitrate=   0.4kbits/s speed=0.0121x elapsed=0:01:06.37    \nframe=   51 fps=0.8 q=45.6 size=       0KiB time=00:00:00.81 bitrate=   0.4kbits/s speed=0.0122x elapsed=0:01:06.90    \nframe=   51 fps=0.8 q=45.6 size=       0KiB time=00:00:00.81 bitrate=   0.4kbits/s speed=0.0121x elapsed=0:01:07.43    \nframe=   52 fps=0.8 q=45.7 size=       0KiB time=00:00:00.83 bitrate=   0.4kbits/s speed=0.0123x elapsed=0:01:07.96    \nframe=   53 fps=0.8 q=41.7 size=       0KiB time=00:00:00.85 bitrate=   0.4kbits/s speed=0.0124x elapsed=0:01:08.49    \nframe=   54 fps=0.8 q=43.8 size=       0KiB time=00:00:00.86 bitrate=   0.4kbits/s speed=0.0126x elapsed=0:01:09.01    \nframe=   54 fps=0.8 q=43.8 size=       0KiB time=00:00:00.86 bitrate=   0.4kbits/s speed=0.0125x elapsed=0:01:09.53    \nframe=   55 fps=0.8 q=45.9 size=       0KiB time=00:00:00.88 bitrate=   0.4kbits/s speed=0.0126x elapsed=0:01:10.05    \nframe=   55 fps=0.8 q=45.9 size=       0KiB time=00:00:00.88 bitrate=   0.4kbits/s speed=0.0125x elapsed=0:01:10.61    \nframe=   56 fps=0.8 q=45.6 size=       0KiB time=00:00:00.90 bitrate=   0.4kbits/s speed=0.0127x elapsed=0:01:11.12    \nframe=   56 fps=0.8 q=45.6 size=       0KiB time=00:00:00.90 bitrate=   0.4kbits/s speed=0.0126x elapsed=0:01:11.65    \nframe=   57 fps=0.8 q=41.0 size=       0KiB time=00:00:00.91 bitrate=   0.4kbits/s speed=0.0127x elapsed=0:01:12.15    \nframe=   58 fps=0.8 q=44.0 size=       0KiB time=00:00:00.93 bitrate=   0.4kbits/s speed=0.0128x elapsed=0:01:12.68    \nframe=   58 fps=0.8 q=44.0 size=       0KiB time=00:00:00.93 bitrate=   0.4kbits/s speed=0.0127x elapsed=0:01:13.21    \nframe=   58 fps=0.8 q=44.0 size=       0KiB time=00:00:00.93 bitrate=   0.4kbits/s speed=0.0127x elapsed=0:01:13.73    \nframe=   59 fps=0.8 q=45.5 size=       0KiB time=00:00:00.95 bitrate=   0.4kbits/s speed=0.0128x elapsed=0:01:14.23    \nframe=   59 fps=0.8 q=45.5 size=       0KiB time=00:00:00.95 bitrate=   0.4kbits/s speed=0.0127x elapsed=0:01:14.76    \nframe=   60 fps=0.8 q=41.0 size=       0KiB time=00:00:00.96 bitrate=   0.4kbits/s speed=0.0128x elapsed=0:01:15.27    \nframe=   60 fps=0.8 q=41.0 size=       0KiB time=00:00:00.96 bitrate=   0.4kbits/s speed=0.0128x elapsed=0:01:15.79    \nframe=   61 fps=0.8 q=44.1 size=       0KiB time=00:00:00.98 bitrate=   0.4kbits/s speed=0.0129x elapsed=0:01:16.30    \nframe=   62 fps=0.8 q=45.5 size=       0KiB time=00:00:01.00 bitrate=   0.4kbits/s speed=0.013x elapsed=0:01:16.82    \nframe=   62 fps=0.8 q=45.5 size=       0KiB time=00:00:01.00 bitrate=   0.4kbits/s speed=0.0129x elapsed=0:01:17.35    \nframe=   62 fps=0.8 q=45.5 size=       0KiB time=00:00:01.00 bitrate=   0.4kbits/s speed=0.0128x elapsed=0:01:17.87    \nframe=   63 fps=0.8 q=45.6 size=       0KiB time=00:00:01.01 bitrate=   0.3kbits/s speed=0.013x elapsed=0:01:18.37    \nframe=   63 fps=0.8 q=45.6 size=       0KiB time=00:00:01.01 bitrate=   0.3kbits/s speed=0.0129x elapsed=0:01:18.90    \nframe=   63 fps=0.8 q=45.6 size=       0KiB time=00:00:01.01 bitrate=   0.3kbits/s speed=0.0128x elapsed=0:01:19.42    \nframe=   64 fps=0.8 q=45.6 size=       0KiB time=00:00:01.03 bitrate=   0.3kbits/s speed=0.0129x elapsed=0:01:19.94    \nframe=   64 fps=0.8 q=45.6 size=       0KiB time=00:00:01.03 bitrate=   0.3kbits/s speed=0.0128x elapsed=0:01:20.46    \nframe=   65 fps=0.8 q=41.2 size=       0KiB time=00:00:01.05 bitrate=   0.3kbits/s speed=0.013x elapsed=0:01:20.98    \nframe=   66 fps=0.8 q=44.1 size=       0KiB time=00:00:01.06 bitrate=   0.3kbits/s speed=0.0131x elapsed=0:01:21.48    \nframe=   67 fps=0.8 q=45.3 size=       0KiB time=00:00:01.08 bitrate=   0.3kbits/s speed=0.0132x elapsed=0:01:22.01    \nframe=   67 fps=0.8 q=45.3 size=       0KiB time=00:00:01.08 bitrate=   0.3kbits/s speed=0.0131x elapsed=0:01:22.52    \nframe=   67 fps=0.8 q=45.3 size=       0KiB time=00:00:01.08 bitrate=   0.3kbits/s speed=0.013x elapsed=0:01:23.04    \nframe=   68 fps=0.8 q=45.4 size=       0KiB time=00:00:01.10 bitrate=   0.3kbits/s speed=0.0132x elapsed=0:01:23.57    \nframe=   69 fps=0.8 q=45.6 size=       0KiB time=00:00:01.11 bitrate=   0.3kbits/s speed=0.0133x elapsed=0:01:24.09    \nframe=   69 fps=0.8 q=45.6 size=       0KiB time=00:00:01.11 bitrate=   0.3kbits/s speed=0.0132x elapsed=0:01:24.63    \nframe=   69 fps=0.8 q=45.6 size=       0KiB time=00:00:01.11 bitrate=   0.3kbits/s speed=0.0131x elapsed=0:01:25.16    \nframe=   70 fps=0.8 q=41.3 size=       0KiB time=00:00:01.13 bitrate=   0.3kbits/s speed=0.0132x elapsed=0:01:25.67    \nframe=   70 fps=0.8 q=41.3 size=       0KiB time=00:00:01.13 bitrate=   0.3kbits/s speed=0.0131x elapsed=0:01:26.19    \nframe=   71 fps=0.8 q=45.5 size=       0KiB time=00:00:01.15 bitrate=   0.3kbits/s speed=0.0133x elapsed=0:01:26.72    \nframe=   72 fps=0.8 q=41.3 size=       0KiB time=00:00:01.16 bitrate=   0.3kbits/s speed=0.0134x elapsed=0:01:27.22    \nframe=   72 fps=0.8 q=41.3 size=       0KiB time=00:00:01.16 bitrate=   0.3kbits/s speed=0.0133x elapsed=0:01:27.74    \nframe=   73 fps=0.8 q=44.0 size=       0KiB time=00:00:01.18 bitrate=   0.3kbits/s speed=0.0134x elapsed=0:01:28.25    \nframe=   73 fps=0.8 q=44.0 size=       0KiB time=00:00:01.18 bitrate=   0.3kbits/s speed=0.0133x elapsed=0:01:28.77    \nframe=   73 fps=0.8 q=44.0 size=       0KiB time=00:00:01.18 bitrate=   0.3kbits/s speed=0.0133x elapsed=0:01:29.28    \nframe=   74 fps=0.8 q=45.8 size=       0KiB time=00:00:01.20 bitrate=   0.3kbits/s speed=0.0134x elapsed=0:01:29.80    \nframe=   74 fps=0.8 q=45.8 size=       0KiB time=00:00:01.20 bitrate=   0.3kbits/s speed=0.0133x elapsed=0:01:30.32    \nframe=   75 fps=0.8 q=45.5 size=       0KiB time=00:00:01.21 bitrate=   0.3kbits/s speed=0.0134x elapsed=0:01:30.86    \nframe=   75 fps=0.8 q=45.5 size=       0KiB time=00:00:01.21 bitrate=   0.3kbits/s speed=0.0133x elapsed=0:01:31.39    \nframe=   75 fps=0.8 q=45.5 size=       0KiB time=00:00:01.21 bitrate=   0.3kbits/s speed=0.0132x elapsed=0:01:31.94    \nframe=   75 fps=0.8 q=45.5 size=       0KiB time=00:00:01.21 bitrate=   0.3kbits/s speed=0.0132x elapsed=0:01:32.47    \nframe=   76 fps=0.8 q=41.3 size=       0KiB time=00:00:01.23 bitrate=   0.3kbits/s speed=0.0133x elapsed=0:01:33.02    \nframe=   76 fps=0.8 q=41.3 size=       0KiB time=00:00:01.23 bitrate=   0.3kbits/s speed=0.0132x elapsed=0:01:33.58    \nframe=   76 fps=0.8 q=41.3 size=       0KiB time=00:00:01.23 bitrate=   0.3kbits/s speed=0.0131x elapsed=0:01:34.13    \nframe=   76 fps=0.8 q=41.3 size=       0KiB time=00:00:01.23 bitrate=   0.3kbits/s speed=0.013x elapsed=0:01:34.70    \nframe=   77 fps=0.8 q=43.8 size=       0KiB time=00:00:01.25 bitrate=   0.3kbits/s speed=0.0131x elapsed=0:01:35.27    \nframe=   77 fps=0.8 q=43.8 size=       0KiB time=00:00:01.25 bitrate=   0.3kbits/s speed=0.013x elapsed=0:01:35.83    \nframe=   77 fps=0.8 q=43.8 size=       0KiB time=00:00:01.25 bitrate=   0.3kbits/s speed=0.013x elapsed=0:01:36.37    \nframe=   77 fps=0.8 q=43.8 size=       0KiB time=00:00:01.25 bitrate=   0.3kbits/s speed=0.0129x elapsed=0:01:36.90    \nframe=   78 fps=0.8 q=45.6 size=       0KiB time=00:00:01.26 bitrate=   0.3kbits/s speed=0.013x elapsed=0:01:37.42    \nframe=   78 fps=0.8 q=45.6 size=       0KiB time=00:00:01.26 bitrate=   0.3kbits/s speed=0.0129x elapsed=0:01:37.97    \nframe=   79 fps=0.8 q=46.4 size=       0KiB time=00:00:01.28 bitrate=   0.3kbits/s speed=0.013x elapsed=0:01:38.50    \nframe=   79 fps=0.8 q=46.4 size=       0KiB time=00:00:01.28 bitrate=   0.3kbits/s speed=0.013x elapsed=0:01:39.02    \nframe=   80 fps=0.8 q=41.5 size=       0KiB time=00:00:01.30 bitrate=   0.3kbits/s speed=0.0131x elapsed=0:01:39.53    \nframe=   81 fps=0.8 q=45.2 size=       0KiB time=00:00:01.31 bitrate=   0.3kbits/s speed=0.0132x elapsed=0:01:40.05    \nframe=   82 fps=0.8 q=46.4 size=       0KiB time=00:00:01.33 bitrate=   0.3kbits/s speed=0.0133x elapsed=0:01:40.57    \nframe=   82 fps=0.8 q=46.4 size=       0KiB time=00:00:01.33 bitrate=   0.3kbits/s speed=0.0132x elapsed=0:01:41.09    \nframe=   82 fps=0.8 q=46.4 size=       0KiB time=00:00:01.33 bitrate=   0.3kbits/s speed=0.0131x elapsed=0:01:41.61    \nframe=   83 fps=0.8 q=46.4 size=       0KiB time=00:00:01.35 bitrate=   0.3kbits/s speed=0.0132x elapsed=0:01:42.14    \nframe=   84 fps=0.8 q=46.4 size=       0KiB time=00:00:01.36 bitrate=   0.3kbits/s speed=0.0133x elapsed=0:01:42.66    \nframe=   84 fps=0.8 q=46.4 size=       0KiB time=00:00:01.36 bitrate=   0.3kbits/s speed=0.0132x elapsed=0:01:43.18    \nframe=   85 fps=0.8 q=41.7 size=       0KiB time=00:00:01.38 bitrate=   0.3kbits/s speed=0.0133x elapsed=0:01:43.69    \nframe=   86 fps=0.8 q=44.6 size=       0KiB time=00:00:01.40 bitrate=   0.3kbits/s speed=0.0134x elapsed=0:01:44.21    \nframe=   86 fps=0.8 q=44.6 size=       0KiB time=00:00:01.40 bitrate=   0.3kbits/s speed=0.0134x elapsed=0:01:44.73    \nframe=   86 fps=0.8 q=44.6 size=       0KiB time=00:00:01.40 bitrate=   0.3kbits/s speed=0.0133x elapsed=0:01:45.25    \nframe=   87 fps=0.8 q=46.5 size=       0KiB time=00:00:01.41 bitrate=   0.2kbits/s speed=0.0134x elapsed=0:01:45.81    \nframe=   87 fps=0.8 q=46.5 size=       0KiB time=00:00:01.41 bitrate=   0.2kbits/s speed=0.0133x elapsed=0:01:46.34    \nframe=   88 fps=0.8 q=46.7 size=       0KiB time=00:00:01.43 bitrate=   0.2kbits/s speed=0.0134x elapsed=0:01:46.84    \nframe=   89 fps=0.8 q=41.7 size=       0KiB time=00:00:01.45 bitrate=   0.2kbits/s speed=0.0135x elapsed=0:01:47.37    \nframe=   89 fps=0.8 q=41.7 size=       0KiB time=00:00:01.45 bitrate=   0.2kbits/s speed=0.0134x elapsed=0:01:47.90    \nframe=   90 fps=0.8 q=44.9 size=       0KiB time=00:00:01.46 bitrate=   0.2kbits/s speed=0.0135x elapsed=0:01:48.41    \nframe=   90 fps=0.8 q=44.9 size=       0KiB time=00:00:01.46 bitrate=   0.2kbits/s speed=0.0135x elapsed=0:01:48.92    \nframe=   91 fps=0.8 q=46.6 size=       0KiB time=00:00:01.48 bitrate=   0.2kbits/s speed=0.0136x elapsed=0:01:49.46    \nframe=   91 fps=0.8 q=46.6 size=       0KiB time=00:00:01.48 bitrate=   0.2kbits/s speed=0.0135x elapsed=0:01:49.97    \nframe=   92 fps=0.8 q=46.8 size=       0KiB time=00:00:01.50 bitrate=   0.2kbits/s speed=0.0136x elapsed=0:01:50.49    \nframe=   93 fps=0.8 q=42.1 size=       0KiB time=00:00:01.51 bitrate=   0.2kbits/s speed=0.0137x elapsed=0:01:51.00    \nframe=   93 fps=0.8 q=42.1 size=       0KiB time=00:00:01.51 bitrate=   0.2kbits/s speed=0.0136x elapsed=0:01:51.52    \nframe=   94 fps=0.8 q=45.0 size=       0KiB time=00:00:01.53 bitrate=   0.2kbits/s speed=0.0137x elapsed=0:01:52.04    \nframe=   94 fps=0.8 q=45.0 size=       0KiB time=00:00:01.53 bitrate=   0.2kbits/s speed=0.0136x elapsed=0:01:52.55    \nframe=   95 fps=0.8 q=47.4 size=       0KiB time=00:00:01.55 bitrate=   0.2kbits/s speed=0.0137x elapsed=0:01:53.07    \nframe=   96 fps=0.8 q=42.3 size=       0KiB time=00:00:01.56 bitrate=   0.2kbits/s speed=0.0138x elapsed=0:01:53.57    \nframe=   97 fps=0.9 q=46.1 size=       0KiB time=00:00:01.58 bitrate=   0.2kbits/s speed=0.0139x elapsed=0:01:54.11    \nframe=   97 fps=0.8 q=46.1 size=       0KiB time=00:00:01.58 bitrate=   0.2kbits/s speed=0.0138x elapsed=0:01:54.63    \nframe=   98 fps=0.9 q=47.6 size=       0KiB time=00:00:01.60 bitrate=   0.2kbits/s speed=0.0139x elapsed=0:01:55.14    \nframe=   98 fps=0.8 q=47.6 size=       0KiB time=00:00:01.60 bitrate=   0.2kbits/s speed=0.0138x elapsed=0:01:55.66    \nframe=   98 fps=0.8 q=47.6 size=       0KiB time=00:00:01.60 bitrate=   0.2kbits/s speed=0.0138x elapsed=0:01:56.20    \nframe=   99 fps=0.8 q=47.5 size=       0KiB time=00:00:01.61 bitrate=   0.2kbits/s speed=0.0139x elapsed=0:01:56.72    \nframe=   99 fps=0.8 q=47.5 size=       0KiB time=00:00:01.61 bitrate=   0.2kbits/s speed=0.0138x elapsed=0:01:57.24    \nframe=  101 fps=0.9 q=42.4 size=       0KiB time=00:00:01.65 bitrate=   0.2kbits/s speed=0.014x elapsed=0:01:57.75    \nframe=  101 fps=0.9 q=42.4 size=       0KiB time=00:00:01.65 bitrate=   0.2kbits/s speed=0.014x elapsed=0:01:58.27    \nframe=  102 fps=0.9 q=45.7 size=       0KiB time=00:00:01.66 bitrate=   0.2kbits/s speed=0.014x elapsed=0:01:58.81    \nframe=  103 fps=0.9 q=47.7 size=       0KiB time=00:00:01.68 bitrate=   0.2kbits/s speed=0.0141x elapsed=0:01:59.31    \nframe=  104 fps=0.9 q=42.7 size=       0KiB time=00:00:01.70 bitrate=   0.2kbits/s speed=0.0142x elapsed=0:01:59.83    \nframe=  105 fps=0.9 q=44.9 size=       0KiB time=00:00:01.71 bitrate=   0.2kbits/s speed=0.0143x elapsed=0:02:00.35    \nframe=  105 fps=0.9 q=44.9 size=       0KiB time=00:00:01.71 bitrate=   0.2kbits/s speed=0.0142x elapsed=0:02:00.86    \nframe=  106 fps=0.9 q=47.7 size=       0KiB time=00:00:01.73 bitrate=   0.2kbits/s speed=0.0143x elapsed=0:02:01.39    \nframe=  107 fps=0.9 q=42.8 size=       0KiB time=00:00:01.75 bitrate=   0.2kbits/s speed=0.0144x elapsed=0:02:01.92    \nframe=  108 fps=0.9 q=45.7 size=       0KiB time=00:00:01.76 bitrate=   0.2kbits/s speed=0.0144x elapsed=0:02:02.44    \nframe=  109 fps=0.9 q=47.6 size=       0KiB time=00:00:01.78 bitrate=   0.2kbits/s speed=0.0145x elapsed=0:02:02.96    \nframe=  110 fps=0.9 q=48.6 size=       0KiB time=00:00:01.80 bitrate=   0.2kbits/s speed=0.0146x elapsed=0:02:03.49    \nframe=  111 fps=0.9 q=48.5 size=       0KiB time=00:00:01.81 bitrate=   0.2kbits/s speed=0.0146x elapsed=0:02:04.00    \nframe=  112 fps=0.9 q=42.5 size=       0KiB time=00:00:01.83 bitrate=   0.2kbits/s speed=0.0147x elapsed=0:02:04.51    \nframe=  112 fps=0.9 q=42.5 size=       0KiB time=00:00:01.83 bitrate=   0.2kbits/s speed=0.0147x elapsed=0:02:05.03    \nframe=  113 fps=0.9 q=45.8 size=       0KiB time=00:00:01.85 bitrate=   0.2kbits/s speed=0.0147x elapsed=0:02:05.56    \nframe=  113 fps=0.9 q=45.8 size=       0KiB time=00:00:01.85 bitrate=   0.2kbits/s speed=0.0147x elapsed=0:02:06.09    \nframe=  114 fps=0.9 q=48.3 size=       0KiB time=00:00:01.86 bitrate=   0.2kbits/s speed=0.0147x elapsed=0:02:06.61    \nframe=  114 fps=0.9 q=48.3 size=       0KiB time=00:00:01.86 bitrate=   0.2kbits/s speed=0.0147x elapsed=0:02:07.14    \nframe=  114 fps=0.9 q=48.3 size=       0KiB time=00:00:01.86 bitrate=   0.2kbits/s speed=0.0146x elapsed=0:02:07.66    \nframe=  115 fps=0.9 q=48.6 size=       0KiB time=00:00:01.88 bitrate=   0.2kbits/s speed=0.0147x elapsed=0:02:08.19    \nframe=  115 fps=0.9 q=48.6 size=       0KiB time=00:00:01.88 bitrate=   0.2kbits/s speed=0.0146x elapsed=0:02:08.72    \nframe=  116 fps=0.9 q=42.5 size=       0KiB time=00:00:01.90 bitrate=   0.2kbits/s speed=0.0147x elapsed=0:02:09.25    \nframe=  117 fps=0.9 q=46.2 size=       0KiB time=00:00:01.91 bitrate=   0.2kbits/s speed=0.0148x elapsed=0:02:09.79    \nframe=  118 fps=0.9 q=48.3 size=       0KiB time=00:00:01.93 bitrate=   0.2kbits/s speed=0.0148x elapsed=0:02:10.30    \nframe=  118 fps=0.9 q=48.3 size=       0KiB time=00:00:01.93 bitrate=   0.2kbits/s speed=0.0148x elapsed=0:02:10.82    \nframe=  119 fps=0.9 q=48.5 size=       0KiB time=00:00:01.95 bitrate=   0.2kbits/s speed=0.0148x elapsed=0:02:11.34    \nframe=  120 fps=0.9 q=48.7 size=       0KiB time=00:00:01.96 bitrate=   0.2kbits/s speed=0.0149x elapsed=0:02:11.89    \nframe=  120 fps=0.9 q=48.7 size=       0KiB time=00:00:01.96 bitrate=   0.2kbits/s speed=0.0149x elapsed=0:02:12.42    \nframe=  121 fps=0.9 q=42.5 size=       0KiB time=00:00:01.98 bitrate=   0.2kbits/s speed=0.0149x elapsed=0:02:12.95    \nframe=  122 fps=0.9 q=45.5 size=     256KiB time=00:00:02.00 bitrate=1048.8kbits/s speed=0.015x elapsed=0:02:13.48    \nframe=  122 fps=0.9 q=45.5 size=     256KiB time=00:00:02.00 bitrate=1048.8kbits/s speed=0.0149x elapsed=0:02:14.00    \nframe=  123 fps=0.9 q=48.5 size=     256KiB time=00:00:02.01 bitrate=1040.1kbits/s speed=0.015x elapsed=0:02:14.55    \nframe=  124 fps=0.9 q=48.5 size=     256KiB time=00:00:02.03 bitrate=1031.6kbits/s speed=0.0151x elapsed=0:02:15.07    \nframe=  124 fps=0.9 q=48.5 size=     256KiB time=00:00:02.03 bitrate=1031.6kbits/s speed=0.015x elapsed=0:02:15.59    \nframe=  125 fps=0.9 q=42.3 size=     256KiB time=00:00:02.05 bitrate=1023.2kbits/s speed=0.0151x elapsed=0:02:16.12    \nframe=  126 fps=0.9 q=45.4 size=     256KiB time=00:00:02.06 bitrate=1014.9kbits/s speed=0.0151x elapsed=0:02:16.64    \nframe=  128 fps=0.9 q=48.6 size=     256KiB time=00:00:02.10 bitrate= 998.8kbits/s speed=0.0153x elapsed=0:02:17.17    \nframe=  128 fps=0.9 q=48.6 size=     256KiB time=00:00:02.10 bitrate= 998.8kbits/s speed=0.0153x elapsed=0:02:17.69    \nframe=  128 fps=0.9 q=48.6 size=     256KiB time=00:00:02.10 bitrate= 998.8kbits/s speed=0.0152x elapsed=0:02:18.21    \nframe=  128 fps=0.9 q=48.6 size=     256KiB time=00:00:02.10 bitrate= 998.8kbits/s speed=0.0151x elapsed=0:02:18.75    \nframe=  128 fps=0.9 q=48.6 size=     256KiB time=00:00:02.10 bitrate= 998.8kbits/s speed=0.0151x elapsed=0:02:19.31    \nframe=  129 fps=0.9 q=42.2 size=     256KiB time=00:00:02.11 bitrate= 990.9kbits/s speed=0.0151x elapsed=0:02:19.88    \nframe=  129 fps=0.9 q=42.2 size=     256KiB time=00:00:02.11 bitrate= 990.9kbits/s speed=0.0151x elapsed=0:02:20.47    \nframe=  129 fps=0.9 q=42.2 size=     256KiB time=00:00:02.11 bitrate= 990.9kbits/s speed=0.015x elapsed=0:02:21.02    \nframe=  130 fps=0.9 q=46.6 size=     256KiB time=00:00:02.13 bitrate= 983.2kbits/s speed=0.0151x elapsed=0:02:21.53    \nframe=  130 fps=0.9 q=46.6 size=     256KiB time=00:00:02.13 bitrate= 983.2kbits/s speed=0.015x elapsed=0:02:22.07    \nframe=  130 fps=0.9 q=46.6 size=     256KiB time=00:00:02.13 bitrate= 983.2kbits/s speed=0.015x elapsed=0:02:22.63    \nframe=  132 fps=0.9 q=42.2 size=     256KiB time=00:00:02.16 bitrate= 968.1kbits/s speed=0.0151x elapsed=0:02:23.19    \nframe=  133 fps=0.9 q=45.6 size=     256KiB time=00:00:02.18 bitrate= 960.7kbits/s speed=0.0152x elapsed=0:02:23.77    \nframe=  134 fps=0.9 q=48.6 size=     256KiB time=00:00:02.20 bitrate= 953.4kbits/s speed=0.0152x elapsed=0:02:24.33    \nframe=  135 fps=0.9 q=48.7 size=     256KiB time=00:00:02.21 bitrate= 946.2kbits/s speed=0.0153x elapsed=0:02:24.85    \nframe=  135 fps=0.9 q=48.7 size=     256KiB time=00:00:02.21 bitrate= 946.2kbits/s speed=0.0152x elapsed=0:02:25.37    \nframe=  135 fps=0.9 q=48.7 size=     256KiB time=00:00:02.21 bitrate= 946.2kbits/s speed=0.0152x elapsed=0:02:25.94    \nframe=  136 fps=0.9 q=42.2 size=     256KiB time=00:00:02.23 bitrate= 939.2kbits/s speed=0.0152x elapsed=0:02:26.49    \nframe=  137 fps=0.9 q=46.2 size=     256KiB time=00:00:02.25 bitrate= 932.2kbits/s speed=0.0153x elapsed=0:02:27.03    \nframe=  137 fps=0.9 q=46.2 size=     256KiB time=00:00:02.25 bitrate= 932.2kbits/s speed=0.0152x elapsed=0:02:27.59    \nframe=  137 fps=0.9 q=46.2 size=     256KiB time=00:00:02.25 bitrate= 932.2kbits/s speed=0.0152x elapsed=0:02:28.13    \nframe=  138 fps=0.9 q=47.2 size=     256KiB time=00:00:02.25 bitrate= 932.2kbits/s speed=0.0151x elapsed=0:02:28.65    \nframe=  138 fps=0.9 q=47.2 size=     256KiB time=00:00:02.26 bitrate= 925.4kbits/s speed=0.0152x elapsed=0:02:29.17    \nframe=  139 fps=0.9 q=48.4 size=     256KiB time=00:00:02.28 bitrate= 918.6kbits/s speed=0.0153x elapsed=0:02:29.69    \nframe=  140 fps=0.9 q=48.5 size=     256KiB time=00:00:02.30 bitrate= 912.0kbits/s speed=0.0153x elapsed=0:02:30.23    \nframe=  140 fps=0.9 q=48.5 size=     256KiB time=00:00:02.30 bitrate= 912.0kbits/s speed=0.0153x elapsed=0:02:30.76    \nframe=  140 fps=0.9 q=48.5 size=     256KiB time=00:00:02.30 bitrate= 912.0kbits/s speed=0.0152x elapsed=0:02:31.28    \nframe=  141 fps=0.9 q=42.3 size=     256KiB time=00:00:02.31 bitrate= 905.4kbits/s speed=0.0153x elapsed=0:02:31.81    \nframe=  141 fps=0.9 q=42.3 size=     256KiB time=00:00:02.31 bitrate= 905.4kbits/s speed=0.0152x elapsed=0:02:32.36    \nframe=  141 fps=0.9 q=42.3 size=     256KiB time=00:00:02.31 bitrate= 905.4kbits/s speed=0.0152x elapsed=0:02:32.88    \nframe=  142 fps=0.9 q=46.3 size=     256KiB time=00:00:02.33 bitrate= 898.9kbits/s speed=0.0152x elapsed=0:02:33.43    \nframe=  143 fps=0.9 q=47.6 size=     256KiB time=00:00:02.35 bitrate= 892.6kbits/s speed=0.0153x elapsed=0:02:33.95    \nframe=  143 fps=0.9 q=47.6 size=     256KiB time=00:00:02.35 bitrate= 892.6kbits/s speed=0.0152x elapsed=0:02:34.52    \nframe=  144 fps=0.9 q=48.2 size=     256KiB time=00:00:02.36 bitrate= 886.3kbits/s speed=0.0153x elapsed=0:02:35.06    \nframe=  145 fps=0.9 q=47.7 size=     256KiB time=00:00:02.38 bitrate= 880.1kbits/s speed=0.0153x elapsed=0:02:35.64    \nframe=  145 fps=0.9 q=47.7 size=     256KiB time=00:00:02.38 bitrate= 880.1kbits/s speed=0.0153x elapsed=0:02:36.23    \nframe=  145 fps=0.9 q=47.7 size=     256KiB time=00:00:02.38 bitrate= 880.1kbits/s speed=0.0152x elapsed=0:02:36.83    \nframe=  145 fps=0.9 q=47.7 size=     256KiB time=00:00:02.38 bitrate= 880.1kbits/s speed=0.0151x elapsed=0:02:37.41    \nframe=  145 fps=0.9 q=47.7 size=     256KiB time=00:00:02.38 bitrate= 880.1kbits/s speed=0.0151x elapsed=0:02:37.99    \nframe=  145 fps=0.9 q=47.7 size=     256KiB time=00:00:02.38 bitrate= 880.1kbits/s speed=0.015x elapsed=0:02:38.55    \nframe=  146 fps=0.9 q=42.2 size=     256KiB time=00:00:02.40 bitrate= 874.0kbits/s speed=0.0151x elapsed=0:02:39.12    \nframe=  146 fps=0.9 q=42.2 size=     256KiB time=00:00:02.40 bitrate= 874.0kbits/s speed=0.015x elapsed=0:02:39.65    \nframe=  146 fps=0.9 q=42.2 size=     256KiB time=00:00:02.40 bitrate= 874.0kbits/s speed=0.015x elapsed=0:02:40.18    \nframe=  147 fps=0.9 q=45.5 size=     256KiB time=00:00:02.41 bitrate= 867.9kbits/s speed=0.015x elapsed=0:02:40.75    \nframe=  147 fps=0.9 q=45.5 size=     256KiB time=00:00:02.41 bitrate= 867.9kbits/s speed=0.015x elapsed=0:02:41.33    \nframe=  147 fps=0.9 q=45.5 size=     256KiB time=00:00:02.41 bitrate= 867.9kbits/s speed=0.0149x elapsed=0:02:41.87    \nframe=  149 fps=0.9 q=42.1 size=     256KiB time=00:00:02.45 bitrate= 856.1kbits/s speed=0.0151x elapsed=0:02:42.43    \nframe=  149 fps=0.9 q=42.1 size=     256KiB time=00:00:02.45 bitrate= 856.1kbits/s speed=0.015x elapsed=0:02:42.94    \nframe=  150 fps=0.9 q=45.2 size=     256KiB time=00:00:02.46 bitrate= 850.3kbits/s speed=0.0151x elapsed=0:02:43.46    \nframe=  151 fps=0.9 q=47.8 size=     256KiB time=00:00:02.48 bitrate= 844.6kbits/s speed=0.0151x elapsed=0:02:43.97    \nframe=  151 fps=0.9 q=47.8 size=     256KiB time=00:00:02.48 bitrate= 844.6kbits/s speed=0.0151x elapsed=0:02:44.49    \nframe=  152 fps=0.9 q=47.8 size=     256KiB time=00:00:02.50 bitrate= 839.0kbits/s speed=0.0152x elapsed=0:02:45.01    \nframe=  153 fps=0.9 q=42.1 size=     256KiB time=00:00:02.51 bitrate= 833.4kbits/s speed=0.0152x elapsed=0:02:45.53    \nframe=  154 fps=0.9 q=45.3 size=     256KiB time=00:00:02.53 bitrate= 828.0kbits/s speed=0.0153x elapsed=0:02:46.08    \nframe=  155 fps=0.9 q=47.6 size=     256KiB time=00:00:02.55 bitrate= 822.6kbits/s speed=0.0153x elapsed=0:02:46.62    \nframe=  155 fps=0.9 q=47.6 size=     256KiB time=00:00:02.55 bitrate= 822.6kbits/s speed=0.0153x elapsed=0:02:47.12    \nframe=  157 fps=0.9 q=42.3 size=     256KiB time=00:00:02.58 bitrate= 811.9kbits/s speed=0.0154x elapsed=0:02:47.64    \nframe=  158 fps=0.9 q=44.9 size=     256KiB time=00:00:02.60 bitrate= 806.7kbits/s speed=0.0155x elapsed=0:02:48.15    \nframe=  158 fps=0.9 q=44.9 size=     256KiB time=00:00:02.60 bitrate= 806.7kbits/s speed=0.0154x elapsed=0:02:48.67    \nframe=  159 fps=0.9 q=47.7 size=     256KiB time=00:00:02.61 bitrate= 801.6kbits/s speed=0.0155x elapsed=0:02:49.19    \nframe=  160 fps=0.9 q=47.5 size=     256KiB time=00:00:02.63 bitrate= 796.5kbits/s speed=0.0155x elapsed=0:02:49.71    \nframe=  162 fps=1.0 q=45.4 size=     256KiB time=00:00:02.66 bitrate= 786.6kbits/s speed=0.0157x elapsed=0:02:50.22    \nframe=  163 fps=1.0 q=47.5 size=     256KiB time=00:00:02.68 bitrate= 781.7kbits/s speed=0.0157x elapsed=0:02:50.75    \nframe=  163 fps=1.0 q=47.5 size=     256KiB time=00:00:02.68 bitrate= 781.7kbits/s speed=0.0157x elapsed=0:02:51.31    \nframe=  164 fps=1.0 q=47.8 size=     256KiB time=00:00:02.70 bitrate= 776.9kbits/s speed=0.0157x elapsed=0:02:51.83    \nframe=  166 fps=1.0 q=45.2 size=     256KiB time=00:00:02.73 bitrate= 767.4kbits/s speed=0.0159x elapsed=0:02:52.35    \nframe=  167 fps=1.0 q=47.6 size=     256KiB time=00:00:02.75 bitrate= 762.7kbits/s speed=0.0159x elapsed=0:02:52.88    \nframe=  167 fps=1.0 q=47.6 size=     256KiB time=00:00:02.75 bitrate= 762.7kbits/s speed=0.0159x elapsed=0:02:53.41    \nframe=  167 fps=1.0 q=47.6 size=     256KiB time=00:00:02.75 bitrate= 762.7kbits/s speed=0.0158x elapsed=0:02:53.95    \nframe=  169 fps=1.0 q=42.3 size=     256KiB time=00:00:02.78 bitrate= 753.6kbits/s speed=0.016x elapsed=0:02:54.47    \nframe=  169 fps=1.0 q=42.3 size=     256KiB time=00:00:02.78 bitrate= 753.6kbits/s speed=0.0159x elapsed=0:02:55.01    \nframe=  170 fps=1.0 q=45.3 size=     256KiB time=00:00:02.80 bitrate= 749.1kbits/s speed=0.0159x elapsed=0:02:55.58    \nframe=  170 fps=1.0 q=45.3 size=     256KiB time=00:00:02.80 bitrate= 749.1kbits/s speed=0.0159x elapsed=0:02:56.12    \nframe=  170 fps=1.0 q=45.3 size=     256KiB time=00:00:02.80 bitrate= 749.1kbits/s speed=0.0159x elapsed=0:02:56.64    \nframe=  171 fps=1.0 q=47.4 size=     256KiB time=00:00:02.81 bitrate= 744.7kbits/s speed=0.0159x elapsed=0:02:57.18    \nframe=  172 fps=1.0 q=47.6 size=     256KiB time=00:00:02.83 bitrate= 740.3kbits/s speed=0.0159x elapsed=0:02:57.69    \nframe=  173 fps=1.0 q=42.9 size=     256KiB time=00:00:02.85 bitrate= 736.0kbits/s speed=0.016x elapsed=0:02:58.22    \nframe=  173 fps=1.0 q=42.9 size=     256KiB time=00:00:02.85 bitrate= 736.0kbits/s speed=0.0159x elapsed=0:02:58.74    \nframe=  174 fps=1.0 q=45.5 size=     256KiB time=00:00:02.86 bitrate= 731.7kbits/s speed=0.016x elapsed=0:02:59.26    \nframe=  174 fps=1.0 q=45.5 size=     256KiB time=00:00:02.86 bitrate= 731.7kbits/s speed=0.0159x elapsed=0:02:59.81    \nframe=  175 fps=1.0 q=47.4 size=     256KiB time=00:00:02.88 bitrate= 727.5kbits/s speed=0.016x elapsed=0:03:00.34    \nframe=  176 fps=1.0 q=47.5 size=     256KiB time=00:00:02.90 bitrate= 723.3kbits/s speed=0.016x elapsed=0:03:00.86    \nframe=  177 fps=1.0 q=42.5 size=     256KiB time=00:00:02.91 bitrate= 719.1kbits/s speed=0.0161x elapsed=0:03:01.41    \nframe=  178 fps=1.0 q=45.0 size=     256KiB time=00:00:02.93 bitrate= 715.1kbits/s speed=0.0161x elapsed=0:03:01.95    \nframe=  179 fps=1.0 q=47.4 size=     256KiB time=00:00:02.95 bitrate= 711.0kbits/s speed=0.0162x elapsed=0:03:02.51    \nframe=  179 fps=1.0 q=47.4 size=     256KiB time=00:00:02.95 bitrate= 711.0kbits/s speed=0.0161x elapsed=0:03:03.07    \nframe=  180 fps=1.0 q=47.5 size=     256KiB time=00:00:02.96 bitrate= 707.0kbits/s speed=0.0162x elapsed=0:03:03.60    \nframe=  181 fps=1.0 q=43.1 size=     256KiB time=00:00:02.98 bitrate= 703.1kbits/s speed=0.0162x elapsed=0:03:04.12    \nframe=  181 fps=1.0 q=43.1 size=     256KiB time=00:00:02.98 bitrate= 703.1kbits/s speed=0.0162x elapsed=0:03:04.65    \nframe=  181 fps=1.0 q=43.1 size=     256KiB time=00:00:02.98 bitrate= 703.1kbits/s speed=0.0161x elapsed=0:03:05.21    \nframe=  182 fps=1.0 q=45.4 size=     256KiB time=00:00:03.00 bitrate= 699.2kbits/s speed=0.0161x elapsed=0:03:05.77    \nframe=  182 fps=1.0 q=45.4 size=     256KiB time=00:00:03.00 bitrate= 699.2kbits/s speed=0.0161x elapsed=0:03:06.33    \nframe=  183 fps=1.0 q=47.4 size=     256KiB time=00:00:03.01 bitrate= 695.3kbits/s speed=0.0161x elapsed=0:03:06.87    \nframe=  184 fps=1.0 q=47.6 size=     256KiB time=00:00:03.03 bitrate= 691.5kbits/s speed=0.0162x elapsed=0:03:07.38    \nframe=  184 fps=1.0 q=47.6 size=     256KiB time=00:00:03.03 bitrate= 691.5kbits/s speed=0.0161x elapsed=0:03:07.92    \nframe=  184 fps=1.0 q=47.6 size=     256KiB time=00:00:03.03 bitrate= 691.5kbits/s speed=0.0161x elapsed=0:03:08.48    \nframe=  184 fps=1.0 q=47.6 size=     256KiB time=00:00:03.03 bitrate= 691.5kbits/s speed=0.016x elapsed=0:03:09.05    \nframe=  185 fps=1.0 q=42.2 size=     256KiB time=00:00:03.05 bitrate= 687.7kbits/s speed=0.0161x elapsed=0:03:09.57    \nframe=  185 fps=1.0 q=42.2 size=     256KiB time=00:00:03.05 bitrate= 687.7kbits/s speed=0.016x elapsed=0:03:10.11    \nframe=  185 fps=1.0 q=42.2 size=     256KiB time=00:00:03.05 bitrate= 687.7kbits/s speed=0.016x elapsed=0:03:10.63    \nframe=  185 fps=1.0 q=42.2 size=     256KiB time=00:00:03.05 bitrate= 687.7kbits/s speed=0.016x elapsed=0:03:11.18    \nframe=  185 fps=1.0 q=42.2 size=     256KiB time=00:00:03.05 bitrate= 687.7kbits/s speed=0.0159x elapsed=0:03:11.71    \nframe=  186 fps=1.0 q=45.0 size=     256KiB time=00:00:03.06 bitrate= 684.0kbits/s speed=0.016x elapsed=0:03:12.23    \nframe=  187 fps=1.0 q=47.5 size=     256KiB time=00:00:03.08 bitrate= 680.3kbits/s speed=0.016x elapsed=0:03:12.78    \nframe=  188 fps=1.0 q=47.6 size=     256KiB time=00:00:03.10 bitrate= 676.6kbits/s speed=0.016x elapsed=0:03:13.33    \nframe=  188 fps=1.0 q=47.6 size=     256KiB time=00:00:03.10 bitrate= 676.6kbits/s speed=0.016x elapsed=0:03:13.88    \nframe=  188 fps=1.0 q=47.6 size=     256KiB time=00:00:03.10 bitrate= 676.6kbits/s speed=0.0159x elapsed=0:03:14.39    \nframe=  189 fps=1.0 q=42.8 size=     256KiB time=00:00:03.11 bitrate= 673.0kbits/s speed=0.016x elapsed=0:03:14.92    \nframe=  190 fps=1.0 q=45.2 size=     256KiB time=00:00:03.13 bitrate= 669.4kbits/s speed=0.016x elapsed=0:03:15.44    \nframe=  190 fps=1.0 q=45.2 size=     256KiB time=00:00:03.13 bitrate= 669.4kbits/s speed=0.016x elapsed=0:03:15.96    \nframe=  190 fps=1.0 q=45.2 size=     256KiB time=00:00:03.13 bitrate= 669.4kbits/s speed=0.0159x elapsed=0:03:16.52    \nframe=  190 fps=1.0 q=45.2 size=     256KiB time=00:00:03.13 bitrate= 669.4kbits/s speed=0.0159x elapsed=0:03:17.07    \nframe=  192 fps=1.0 q=47.8 size=     256KiB time=00:00:03.16 bitrate= 662.4kbits/s speed=0.016x elapsed=0:03:17.64    \nframe=  192 fps=1.0 q=47.8 size=     256KiB time=00:00:03.16 bitrate= 662.4kbits/s speed=0.016x elapsed=0:03:18.16    \nframe=  192 fps=1.0 q=47.8 size=     256KiB time=00:00:03.16 bitrate= 662.4kbits/s speed=0.0159x elapsed=0:03:18.69    \nframe=  192 fps=1.0 q=47.8 size=     256KiB time=00:00:03.16 bitrate= 662.4kbits/s speed=0.0159x elapsed=0:03:19.24    \nframe=  194 fps=1.0 q=45.9 size=     256KiB time=00:00:03.20 bitrate= 655.5kbits/s speed=0.016x elapsed=0:03:19.78    \nframe=  195 fps=1.0 q=47.3 size=     256KiB time=00:00:03.20 bitrate= 655.5kbits/s speed=0.016x elapsed=0:03:20.33    \nframe=  196 fps=1.0 q=47.3 size=     256KiB time=00:00:03.23 bitrate= 648.7kbits/s speed=0.0161x elapsed=0:03:20.87    \nframe=  196 fps=1.0 q=47.3 size=     256KiB time=00:00:03.23 bitrate= 648.7kbits/s speed=0.0161x elapsed=0:03:21.41    \nframe=  196 fps=1.0 q=47.3 size=     256KiB time=00:00:03.23 bitrate= 648.7kbits/s speed=0.016x elapsed=0:03:21.94    \nframe=  196 fps=1.0 q=47.3 size=     256KiB time=00:00:03.23 bitrate= 648.7kbits/s speed=0.016x elapsed=0:03:22.47    \nframe=  197 fps=1.0 q=47.6 size=     256KiB time=00:00:03.25 bitrate= 645.4kbits/s speed=0.016x elapsed=0:03:23.05    \nframe=  198 fps=1.0 q=42.8 size=     256KiB time=00:00:03.26 bitrate= 642.1kbits/s speed=0.016x elapsed=0:03:23.58    \nframe=  198 fps=1.0 q=42.8 size=     256KiB time=00:00:03.26 bitrate= 642.1kbits/s speed=0.016x elapsed=0:03:24.15    \nframe=  198 fps=1.0 q=42.8 size=     256KiB time=00:00:03.26 bitrate= 642.1kbits/s speed=0.016x elapsed=0:03:24.66    \nframe=  199 fps=1.0 q=45.5 size=     256KiB time=00:00:03.28 bitrate= 638.8kbits/s speed=0.016x elapsed=0:03:25.20    \nframe=  199 fps=1.0 q=45.5 size=     256KiB time=00:00:03.28 bitrate= 638.8kbits/s speed=0.016x elapsed=0:03:25.71    \nframe=  199 fps=1.0 q=45.5 size=     256KiB time=00:00:03.28 bitrate= 638.8kbits/s speed=0.0159x elapsed=0:03:26.25    \nframe=  199 fps=1.0 q=45.5 size=     256KiB time=00:00:03.28 bitrate= 638.8kbits/s speed=0.0159x elapsed=0:03:26.82    \nframe=  199 fps=1.0 q=45.5 size=     256KiB time=00:00:03.28 bitrate= 638.8kbits/s speed=0.0158x elapsed=0:03:27.36    \nframe=  199 fps=1.0 q=45.5 size=     256KiB time=00:00:03.28 bitrate= 638.8kbits/s speed=0.0158x elapsed=0:03:27.90    \nframe=  199 fps=1.0 q=45.5 size=     256KiB time=00:00:03.28 bitrate= 638.8kbits/s speed=0.0158x elapsed=0:03:28.42    \nframe=  202 fps=1.0 q=43.1 size=     256KiB time=00:00:03.33 bitrate= 629.3kbits/s speed=0.016x elapsed=0:03:28.96    \nframe=  202 fps=1.0 q=43.1 size=     256KiB time=00:00:03.33 bitrate= 629.3kbits/s speed=0.0159x elapsed=0:03:29.52    \nframe=  202 fps=1.0 q=43.1 size=     256KiB time=00:00:03.33 bitrate= 629.3kbits/s speed=0.0159x elapsed=0:03:30.06    \nframe=  202 fps=1.0 q=43.1 size=     256KiB time=00:00:03.33 bitrate= 629.3kbits/s speed=0.0158x elapsed=0:03:30.60    \nframe=  203 fps=1.0 q=45.6 size=     256KiB time=00:00:03.35 bitrate= 626.1kbits/s speed=0.0159x elapsed=0:03:31.15    \nframe=  203 fps=1.0 q=45.6 size=     256KiB time=00:00:03.35 bitrate= 626.1kbits/s speed=0.0158x elapsed=0:03:31.72    \nframe=  203 fps=1.0 q=45.6 size=     256KiB time=00:00:03.35 bitrate= 626.1kbits/s speed=0.0158x elapsed=0:03:32.30    \nframe=  203 fps=1.0 q=45.6 size=     256KiB time=00:00:03.35 bitrate= 626.1kbits/s speed=0.0157x elapsed=0:03:32.92    \nframe=  203 fps=1.0 q=45.6 size=     256KiB time=00:00:03.35 bitrate= 626.1kbits/s speed=0.0157x elapsed=0:03:33.55    \nframe=  203 fps=0.9 q=45.6 size=     256KiB time=00:00:03.35 bitrate= 626.1kbits/s speed=0.0156x elapsed=0:03:34.15    \nframe=  204 fps=1.0 q=47.3 size=     256KiB time=00:00:03.36 bitrate= 623.0kbits/s speed=0.0157x elapsed=0:03:34.70    \nframe=  204 fps=0.9 q=47.3 size=     256KiB time=00:00:03.36 bitrate= 623.0kbits/s speed=0.0156x elapsed=0:03:35.24    \nframe=  205 fps=0.9 q=43.0 size=     256KiB time=00:00:03.38 bitrate= 620.0kbits/s speed=0.0157x elapsed=0:03:35.83    \nframe=  205 fps=0.9 q=43.0 size=     256KiB time=00:00:03.38 bitrate= 620.0kbits/s speed=0.0156x elapsed=0:03:36.41    \nframe=  205 fps=0.9 q=43.0 size=     256KiB time=00:00:03.38 bitrate= 620.0kbits/s speed=0.0156x elapsed=0:03:36.98    \nframe=  206 fps=0.9 q=46.3 size=     256KiB time=00:00:03.40 bitrate= 616.9kbits/s speed=0.0156x elapsed=0:03:37.49    \nframe=  207 fps=0.9 q=47.7 size=     256KiB time=00:00:03.41 bitrate= 613.9kbits/s speed=0.0157x elapsed=0:03:38.01    \nframe=  208 fps=1.0 q=48.1 size=     256KiB time=00:00:03.43 bitrate= 610.9kbits/s speed=0.0157x elapsed=0:03:38.51    \nframe=  208 fps=0.9 q=48.1 size=     256KiB time=00:00:03.43 bitrate= 610.9kbits/s speed=0.0157x elapsed=0:03:39.03    \nframe=  209 fps=1.0 q=43.6 size=     256KiB time=00:00:03.45 bitrate= 608.0kbits/s speed=0.0157x elapsed=0:03:39.57    \nframe=  210 fps=1.0 q=47.2 size=     256KiB time=00:00:03.46 bitrate= 605.0kbits/s speed=0.0158x elapsed=0:03:40.08    \nframe=  211 fps=1.0 q=48.4 size=     256KiB time=00:00:03.48 bitrate= 602.2kbits/s speed=0.0158x elapsed=0:03:40.62    \nframe=  211 fps=1.0 q=48.4 size=     256KiB time=00:00:03.48 bitrate= 602.2kbits/s speed=0.0158x elapsed=0:03:41.14    \nframe=  212 fps=1.0 q=48.9 size=     256KiB time=00:00:03.50 bitrate= 599.3kbits/s speed=0.0158x elapsed=0:03:41.67    \nframe=  212 fps=1.0 q=48.9 size=     256KiB time=00:00:03.50 bitrate= 599.3kbits/s speed=0.0158x elapsed=0:03:42.20    \nframe=  213 fps=1.0 q=44.1 size=     256KiB time=00:00:03.51 bitrate= 596.4kbits/s speed=0.0158x elapsed=0:03:42.72    \nframe=  214 fps=1.0 q=47.5 size=     256KiB time=00:00:03.53 bitrate= 593.6kbits/s speed=0.0158x elapsed=0:03:43.24    \nframe=  214 fps=1.0 q=47.5 size=     256KiB time=00:00:03.53 bitrate= 593.6kbits/s speed=0.0158x elapsed=0:03:43.76    \nframe=  216 fps=1.0 q=49.5 size=     256KiB time=00:00:03.56 bitrate= 588.1kbits/s speed=0.0159x elapsed=0:03:44.29    \nframe=  217 fps=1.0 q=44.6 size=     256KiB time=00:00:03.58 bitrate= 585.4kbits/s speed=0.0159x elapsed=0:03:44.80    \nframe=  218 fps=1.0 q=48.6 size=     256KiB time=00:00:03.60 bitrate= 582.6kbits/s speed=0.016x elapsed=0:03:45.31    \nframe=  218 fps=1.0 q=48.6 size=     256KiB time=00:00:03.60 bitrate= 582.6kbits/s speed=0.0159x elapsed=0:03:45.85    \nframe=  219 fps=1.0 q=49.7 size=     256KiB time=00:00:03.61 bitrate= 580.0kbits/s speed=0.016x elapsed=0:03:46.37    \nframe=  220 fps=1.0 q=50.1 size=     256KiB time=00:00:03.63 bitrate= 577.3kbits/s speed=0.016x elapsed=0:03:46.90    \nframe=  222 fps=1.0 q=48.6 size=     256KiB time=00:00:03.66 bitrate= 572.0kbits/s speed=0.0161x elapsed=0:03:47.42    \nframe=  222 fps=1.0 q=48.6 size=     256KiB time=00:00:03.66 bitrate= 572.0kbits/s speed=0.0161x elapsed=0:03:47.97    \nframe=  222 fps=1.0 q=48.6 size=     256KiB time=00:00:03.66 bitrate= 572.0kbits/s speed=0.016x elapsed=0:03:48.54    \nframe=  222 fps=1.0 q=48.6 size=     256KiB time=00:00:03.66 bitrate= 572.0kbits/s speed=0.016x elapsed=0:03:49.09    \nframe=  223 fps=1.0 q=50.2 size=     256KiB time=00:00:03.68 bitrate= 569.5kbits/s speed=0.016x elapsed=0:03:49.62    \nframe=  224 fps=1.0 q=50.4 size=     256KiB time=00:00:03.70 bitrate= 566.9kbits/s speed=0.0161x elapsed=0:03:50.13    \nframe=  224 fps=1.0 q=50.4 size=     256KiB time=00:00:03.70 bitrate= 566.9kbits/s speed=0.016x elapsed=0:03:50.67    \nframe=  224 fps=1.0 q=50.4 size=     256KiB time=00:00:03.70 bitrate= 566.9kbits/s speed=0.016x elapsed=0:03:51.21    \nframe=  224 fps=1.0 q=50.4 size=     256KiB time=00:00:03.70 bitrate= 566.9kbits/s speed=0.016x elapsed=0:03:51.75    \nframe=  224 fps=1.0 q=50.4 size=     256KiB time=00:00:03.70 bitrate= 566.9kbits/s speed=0.0159x elapsed=0:03:52.31    \nframe=  225 fps=1.0 q=45.8 size=     256KiB time=00:00:03.71 bitrate= 564.4kbits/s speed=0.016x elapsed=0:03:52.83    \nframe=  225 fps=1.0 q=45.8 size=     256KiB time=00:00:03.71 bitrate= 564.4kbits/s speed=0.0159x elapsed=0:03:53.36    \nframe=  225 fps=1.0 q=45.8 size=     256KiB time=00:00:03.71 bitrate= 564.4kbits/s speed=0.0159x elapsed=0:03:53.88    \nframe=  226 fps=1.0 q=48.9 size=     256KiB time=00:00:03.73 bitrate= 561.8kbits/s speed=0.0159x elapsed=0:03:54.45    \nframe=  227 fps=1.0 q=50.3 size=     256KiB time=00:00:03.75 bitrate= 559.3kbits/s speed=0.016x elapsed=0:03:55.00    \nframe=  227 fps=1.0 q=50.3 size=     256KiB time=00:00:03.75 bitrate= 559.3kbits/s speed=0.0159x elapsed=0:03:55.52    \nframe=  227 fps=1.0 q=50.3 size=     256KiB time=00:00:03.75 bitrate= 559.3kbits/s speed=0.0159x elapsed=0:03:56.06    \nframe=  228 fps=1.0 q=46.4 size=     256KiB time=00:00:03.76 bitrate= 556.9kbits/s speed=0.0159x elapsed=0:03:56.60    \nframe=  228 fps=1.0 q=46.4 size=     256KiB time=00:00:03.76 bitrate= 556.9kbits/s speed=0.0159x elapsed=0:03:57.15    \nframe=  228 fps=1.0 q=46.4 size=     256KiB time=00:00:03.76 bitrate= 556.9kbits/s speed=0.0158x elapsed=0:03:57.72    \nframe=  229 fps=1.0 q=50.3 size=     256KiB time=00:00:03.78 bitrate= 554.4kbits/s speed=0.0159x elapsed=0:03:58.24    \nframe=  230 fps=1.0 q=50.7 size=     256KiB time=00:00:03.80 bitrate= 552.0kbits/s speed=0.0159x elapsed=0:03:58.77    \nframe=  230 fps=1.0 q=50.7 size=     256KiB time=00:00:03.80 bitrate= 552.0kbits/s speed=0.0159x elapsed=0:03:59.35    \nframe=  230 fps=1.0 q=50.7 size=     256KiB time=00:00:03.80 bitrate= 552.0kbits/s speed=0.0158x elapsed=0:03:59.90    \nframe=  230 fps=1.0 q=50.7 size=     256KiB time=00:00:03.80 bitrate= 552.0kbits/s speed=0.0158x elapsed=0:04:00.46    \nframe=  232 fps=1.0 q=49.9 size=     256KiB time=00:00:03.83 bitrate= 547.2kbits/s speed=0.0159x elapsed=0:04:01.02    \nframe=  232 fps=1.0 q=49.9 size=     256KiB time=00:00:03.83 bitrate= 547.2kbits/s speed=0.0159x elapsed=0:04:01.58    \nframe=  232 fps=1.0 q=49.9 size=     256KiB time=00:00:03.83 bitrate= 547.2kbits/s speed=0.0158x elapsed=0:04:02.10    \nframe=  232 fps=1.0 q=49.9 size=     256KiB time=00:00:03.83 bitrate= 547.2kbits/s speed=0.0158x elapsed=0:04:02.63    \nframe=  232 fps=1.0 q=49.9 size=     256KiB time=00:00:03.83 bitrate= 547.2kbits/s speed=0.0158x elapsed=0:04:03.17    \nframe=  233 fps=1.0 q=50.6 size=     256KiB time=00:00:03.85 bitrate= 544.8kbits/s speed=0.0158x elapsed=0:04:03.71    \nframe=  233 fps=1.0 q=50.6 size=     256KiB time=00:00:03.85 bitrate= 544.8kbits/s speed=0.0158x elapsed=0:04:04.27    \nframe=  233 fps=1.0 q=50.6 size=     256KiB time=00:00:03.85 bitrate= 544.8kbits/s speed=0.0157x elapsed=0:04:04.82    \nframe=  234 fps=1.0 q=45.8 size=     256KiB time=00:00:03.86 bitrate= 542.5kbits/s speed=0.0158x elapsed=0:04:05.35    \nframe=  234 fps=1.0 q=45.8 size=     256KiB time=00:00:03.86 bitrate= 542.5kbits/s speed=0.0157x elapsed=0:04:05.88    \nframe=  234 fps=0.9 q=45.8 size=     256KiB time=00:00:03.86 bitrate= 542.5kbits/s speed=0.0157x elapsed=0:04:06.42    \nframe=  235 fps=1.0 q=49.6 size=     256KiB time=00:00:03.88 bitrate= 540.1kbits/s speed=0.0157x elapsed=0:04:06.98    \nframe=  235 fps=0.9 q=49.6 size=     256KiB time=00:00:03.88 bitrate= 540.1kbits/s speed=0.0157x elapsed=0:04:07.52    \nframe=  235 fps=0.9 q=49.6 size=     256KiB time=00:00:03.88 bitrate= 540.1kbits/s speed=0.0157x elapsed=0:04:08.07    \nframe=  237 fps=1.0 q=46.5 size=     256KiB time=00:00:03.91 bitrate= 535.5kbits/s speed=0.0158x elapsed=0:04:08.58    \nframe=  237 fps=1.0 q=46.5 size=     256KiB time=00:00:03.91 bitrate= 535.5kbits/s speed=0.0157x elapsed=0:04:09.12    \nframe=  238 fps=1.0 q=50.0 size=     256KiB time=00:00:03.93 bitrate= 533.3kbits/s speed=0.0158x elapsed=0:04:09.64    \nframe=  238 fps=1.0 q=50.0 size=     256KiB time=00:00:03.93 bitrate= 533.3kbits/s speed=0.0157x elapsed=0:04:10.17    \nframe=  240 fps=1.0 q=45.6 size=     256KiB time=00:00:03.96 bitrate= 528.8kbits/s speed=0.0158x elapsed=0:04:10.71    \nframe=  240 fps=1.0 q=45.6 size=     256KiB time=00:00:03.96 bitrate= 528.8kbits/s speed=0.0158x elapsed=0:04:11.23    \nframe=  240 fps=1.0 q=45.6 size=     256KiB time=00:00:03.96 bitrate= 528.8kbits/s speed=0.0158x elapsed=0:04:11.75    \nframe=  241 fps=1.0 q=50.2 size=     512KiB time=00:00:03.98 bitrate=1053.1kbits/s speed=0.0158x elapsed=0:04:12.27    \nframe=  242 fps=1.0 q=45.1 size=     512KiB time=00:00:04.00 bitrate=1048.7kbits/s speed=0.0158x elapsed=0:04:12.78    \nframe=  242 fps=1.0 q=45.1 size=     512KiB time=00:00:04.00 bitrate=1048.7kbits/s speed=0.0158x elapsed=0:04:13.30    \nframe=  243 fps=1.0 q=49.1 size=     512KiB time=00:00:04.01 bitrate=1044.3kbits/s speed=0.0158x elapsed=0:04:13.81    \nframe=  244 fps=1.0 q=50.6 size=     512KiB time=00:00:04.03 bitrate=1040.0kbits/s speed=0.0159x elapsed=0:04:14.35    \nframe=  244 fps=1.0 q=50.6 size=     512KiB time=00:00:04.03 bitrate=1040.0kbits/s speed=0.0158x elapsed=0:04:14.91    \nframe=  244 fps=1.0 q=50.6 size=     512KiB time=00:00:04.03 bitrate=1040.0kbits/s speed=0.0158x elapsed=0:04:15.49    \nframe=  245 fps=1.0 q=45.0 size=     512KiB time=00:00:04.05 bitrate=1035.7kbits/s speed=0.0158x elapsed=0:04:16.01    \nframe=  245 fps=1.0 q=45.0 size=     512KiB time=00:00:04.05 bitrate=1035.7kbits/s speed=0.0158x elapsed=0:04:16.53    \nframe=  245 fps=1.0 q=45.0 size=     512KiB time=00:00:04.05 bitrate=1035.7kbits/s speed=0.0158x elapsed=0:04:17.07    \nframe=  245 fps=1.0 q=45.0 size=     512KiB time=00:00:04.05 bitrate=1035.7kbits/s speed=0.0157x elapsed=0:04:17.64    \nframe=  246 fps=1.0 q=49.3 size=     512KiB time=00:00:04.06 bitrate=1031.5kbits/s speed=0.0158x elapsed=0:04:18.19    \nframe=  247 fps=1.0 q=50.6 size=     512KiB time=00:00:04.08 bitrate=1027.3kbits/s speed=0.0158x elapsed=0:04:18.74    \nframe=  247 fps=1.0 q=50.6 size=     512KiB time=00:00:04.08 bitrate=1027.3kbits/s speed=0.0157x elapsed=0:04:19.28    \nframe=  247 fps=1.0 q=50.6 size=     512KiB time=00:00:04.08 bitrate=1027.3kbits/s speed=0.0157x elapsed=0:04:19.79    \nframe=  248 fps=1.0 q=44.9 size=     512KiB time=00:00:04.10 bitrate=1023.1kbits/s speed=0.0158x elapsed=0:04:20.31    \nframe=  248 fps=1.0 q=44.9 size=     512KiB time=00:00:04.10 bitrate=1023.1kbits/s speed=0.0157x elapsed=0:04:20.86    \nframe=  248 fps=0.9 q=44.9 size=     512KiB time=00:00:04.10 bitrate=1023.1kbits/s speed=0.0157x elapsed=0:04:21.42    \nframe=  248 fps=0.9 q=44.9 size=     512KiB time=00:00:04.10 bitrate=1023.1kbits/s speed=0.0157x elapsed=0:04:21.94    \nframe=  249 fps=0.9 q=49.0 size=     512KiB time=00:00:04.11 bitrate=1018.9kbits/s speed=0.0157x elapsed=0:04:22.49    \nframe=  250 fps=1.0 q=50.4 size=     512KiB time=00:00:04.13 bitrate=1014.8kbits/s speed=0.0157x elapsed=0:04:23.00    \nframe=  250 fps=0.9 q=50.4 size=     512KiB time=00:00:04.13 bitrate=1014.8kbits/s speed=0.0157x elapsed=0:04:23.53    \nframe=  251 fps=1.0 q=42.3 size=     512KiB time=00:00:04.15 bitrate=1010.8kbits/s speed=0.0157x elapsed=0:04:24.07    \nframe=  251 fps=0.9 q=42.3 size=     512KiB time=00:00:04.15 bitrate=1010.8kbits/s speed=0.0157x elapsed=0:04:24.61    \nframe=  251 fps=0.9 q=42.3 size=     512KiB time=00:00:04.15 bitrate=1010.8kbits/s speed=0.0157x elapsed=0:04:25.14    \nframe=  253 fps=1.0 q=46.5 size=     512KiB time=00:00:04.18 bitrate=1002.7kbits/s speed=0.0157x elapsed=0:04:25.72    \nframe=  253 fps=1.0 q=46.5 size=     512KiB time=00:00:04.18 bitrate=1002.7kbits/s speed=0.0157x elapsed=0:04:26.28    \nframe=  254 fps=1.0 q=49.6 size=     512KiB time=00:00:04.20 bitrate= 998.7kbits/s speed=0.0157x elapsed=0:04:26.82    \nframe=  254 fps=0.9 q=49.6 size=     512KiB time=00:00:04.20 bitrate= 998.7kbits/s speed=0.0157x elapsed=0:04:27.40    \nframe=  254 fps=0.9 q=49.6 size=     512KiB time=00:00:04.20 bitrate= 998.7kbits/s speed=0.0157x elapsed=0:04:28.05    \nframe=  254 fps=0.9 q=49.6 size=     512KiB time=00:00:04.20 bitrate= 998.7kbits/s speed=0.0156x elapsed=0:04:28.67    \nframe=  255 fps=0.9 q=49.7 size=     512KiB time=00:00:04.21 bitrate= 994.8kbits/s speed=0.0157x elapsed=0:04:29.26    \nframe=  255 fps=0.9 q=49.7 size=     512KiB time=00:00:04.21 bitrate= 994.8kbits/s speed=0.0156x elapsed=0:04:29.84    \nframe=  255 fps=0.9 q=49.7 size=     512KiB time=00:00:04.21 bitrate= 994.8kbits/s speed=0.0156x elapsed=0:04:30.39    \nframe=  255 fps=0.9 q=49.7 size=     512KiB time=00:00:04.21 bitrate= 994.8kbits/s speed=0.0156x elapsed=0:04:30.94    \nframe=  255 fps=0.9 q=49.7 size=     512KiB time=00:00:04.21 bitrate= 994.8kbits/s speed=0.0155x elapsed=0:04:31.45    \nframe=  256 fps=0.9 q=49.2 size=     512KiB time=00:00:04.23 bitrate= 990.9kbits/s speed=0.0156x elapsed=0:04:32.02    \nframe=  256 fps=0.9 q=49.2 size=     512KiB time=00:00:04.23 bitrate= 990.9kbits/s speed=0.0155x elapsed=0:04:32.59    \nframe=  257 fps=0.9 q=42.7 size=     512KiB time=00:00:04.25 bitrate= 987.0kbits/s speed=0.0156x elapsed=0:04:33.13    \nframe=  258 fps=0.9 q=46.7 size=     512KiB time=00:00:04.26 bitrate= 983.1kbits/s speed=0.0156x elapsed=0:04:33.66    \nframe=  259 fps=0.9 q=48.5 size=     512KiB time=00:00:04.28 bitrate= 979.3kbits/s speed=0.0156x elapsed=0:04:34.18    \nframe=  259 fps=0.9 q=48.5 size=     512KiB time=00:00:04.28 bitrate= 979.3kbits/s speed=0.0156x elapsed=0:04:34.72    \nframe=  260 fps=0.9 q=48.2 size=     512KiB time=00:00:04.30 bitrate= 975.5kbits/s speed=0.0156x elapsed=0:04:35.25    \nframe=  260 fps=0.9 q=48.2 size=     512KiB time=00:00:04.30 bitrate= 975.5kbits/s speed=0.0156x elapsed=0:04:35.77    \nframe=  262 fps=0.9 q=46.0 size=     512KiB time=00:00:04.33 bitrate= 968.0kbits/s speed=0.0157x elapsed=0:04:36.30    \nframe=  263 fps=1.0 q=48.3 size=     512KiB time=00:00:04.35 bitrate= 964.3kbits/s speed=0.0157x elapsed=0:04:36.82    \nframe=  264 fps=1.0 q=48.4 size=     512KiB time=00:00:04.36 bitrate= 960.6kbits/s speed=0.0157x elapsed=0:04:37.35    \nframe=  264 fps=0.9 q=48.4 size=     512KiB time=00:00:04.36 bitrate= 960.6kbits/s speed=0.0157x elapsed=0:04:37.90    \nframe=  265 fps=1.0 q=42.6 size=     512KiB time=00:00:04.38 bitrate= 957.0kbits/s speed=0.0157x elapsed=0:04:38.41    \nframe=  266 fps=1.0 q=45.4 size=     512KiB time=00:00:04.40 bitrate= 953.3kbits/s speed=0.0158x elapsed=0:04:38.93    \nframe=  266 fps=1.0 q=45.4 size=     512KiB time=00:00:04.40 bitrate= 953.3kbits/s speed=0.0157x elapsed=0:04:39.44    \nframe=  267 fps=1.0 q=48.2 size=     512KiB time=00:00:04.41 bitrate= 949.7kbits/s speed=0.0158x elapsed=0:04:39.96    \nframe=  268 fps=1.0 q=48.0 size=     512KiB time=00:00:04.43 bitrate= 946.2kbits/s speed=0.0158x elapsed=0:04:40.49    \nframe=  269 fps=1.0 q=42.3 size=     512KiB time=00:00:04.45 bitrate= 942.6kbits/s speed=0.0158x elapsed=0:04:41.01    \nframe=  270 fps=1.0 q=45.4 size=     512KiB time=00:00:04.46 bitrate= 939.1kbits/s speed=0.0159x elapsed=0:04:41.54    \nframe=  271 fps=1.0 q=48.0 size=     512KiB time=00:00:04.48 bitrate= 935.6kbits/s speed=0.0159x elapsed=0:04:42.05    \nframe=  272 fps=1.0 q=48.1 size=     512KiB time=00:00:04.50 bitrate= 932.1kbits/s speed=0.0159x elapsed=0:04:42.58    \nframe=  272 fps=1.0 q=48.1 size=     512KiB time=00:00:04.50 bitrate= 932.1kbits/s speed=0.0159x elapsed=0:04:43.11    \nframe=  273 fps=1.0 q=42.6 size=     512KiB time=00:00:04.51 bitrate= 928.7kbits/s speed=0.0159x elapsed=0:04:43.63    \nframe=  275 fps=1.0 q=48.4 size=     512KiB time=00:00:04.53 bitrate= 925.3kbits/s speed=0.016x elapsed=0:04:44.15    \nframe=  277 fps=1.0 q=43.1 size=     512KiB time=00:00:04.56 bitrate= 918.5kbits/s speed=0.016x elapsed=0:04:44.67    \nframe=  277 fps=1.0 q=43.1 size=     512KiB time=00:00:04.58 bitrate= 915.2kbits/s speed=0.0161x elapsed=0:04:45.21    \nframe=  277 fps=1.0 q=43.1 size=     512KiB time=00:00:04.58 bitrate= 915.2kbits/s speed=0.016x elapsed=0:04:45.75    \nframe=  278 fps=1.0 q=45.2 size=     512KiB time=00:00:04.60 bitrate= 911.9kbits/s speed=0.0161x elapsed=0:04:46.27    \nframe=  280 fps=1.0 q=47.8 size=     512KiB time=00:00:04.63 bitrate= 905.3kbits/s speed=0.0162x elapsed=0:04:46.79    \nframe=  281 fps=1.0 q=42.7 size=     512KiB time=00:00:04.65 bitrate= 902.1kbits/s speed=0.0162x elapsed=0:04:47.31    \nframe=  282 fps=1.0 q=45.3 size=     512KiB time=00:00:04.66 bitrate= 898.9kbits/s speed=0.0162x elapsed=0:04:47.85    \nframe=  282 fps=1.0 q=45.3 size=     512KiB time=00:00:04.66 bitrate= 898.9kbits/s speed=0.0162x elapsed=0:04:48.36    \nframe=  284 fps=1.0 q=48.5 size=     512KiB time=00:00:04.70 bitrate= 892.5kbits/s speed=0.0163x elapsed=0:04:48.88    \nframe=  285 fps=1.0 q=43.2 size=     512KiB time=00:00:04.71 bitrate= 889.3kbits/s speed=0.0163x elapsed=0:04:49.40    \nframe=  286 fps=1.0 q=45.8 size=     512KiB time=00:00:04.73 bitrate= 886.2kbits/s speed=0.0163x elapsed=0:04:49.93    \nframe=  286 fps=1.0 q=45.8 size=     512KiB time=00:00:04.73 bitrate= 886.2kbits/s speed=0.0163x elapsed=0:04:50.47    \nframe=  286 fps=1.0 q=45.8 size=     512KiB time=00:00:04.73 bitrate= 886.2kbits/s speed=0.0163x elapsed=0:04:51.04    \nframe=  287 fps=1.0 q=47.8 size=     512KiB time=00:00:04.75 bitrate= 883.1kbits/s speed=0.0163x elapsed=0:04:51.57    \nframe=  290 fps=1.0 q=45.8 size=     512KiB time=00:00:04.80 bitrate= 873.9kbits/s speed=0.0164x elapsed=0:04:52.11    \nframe=  290 fps=1.0 q=45.8 size=     512KiB time=00:00:04.80 bitrate= 873.9kbits/s speed=0.0164x elapsed=0:04:52.64    \nframe=  290 fps=1.0 q=45.8 size=     512KiB time=00:00:04.80 bitrate= 873.9kbits/s speed=0.0164x elapsed=0:04:53.19    \nframe=  291 fps=1.0 q=47.8 size=     512KiB time=00:00:04.81 bitrate= 870.9kbits/s speed=0.0164x elapsed=0:04:53.73    \nframe=  291 fps=1.0 q=47.8 size=     512KiB time=00:00:04.81 bitrate= 870.9kbits/s speed=0.0164x elapsed=0:04:54.28    \nframe=  291 fps=1.0 q=47.8 size=     512KiB time=00:00:04.81 bitrate= 870.9kbits/s speed=0.0163x elapsed=0:04:54.80    \nframe=  292 fps=1.0 q=47.7 size=     512KiB time=00:00:04.83 bitrate= 867.9kbits/s speed=0.0164x elapsed=0:04:55.33    \nframe=  293 fps=1.0 q=42.9 size=     512KiB time=00:00:04.85 bitrate= 864.9kbits/s speed=0.0164x elapsed=0:04:55.86    \nframe=  293 fps=1.0 q=42.9 size=     512KiB time=00:00:04.85 bitrate= 864.9kbits/s speed=0.0164x elapsed=0:04:56.41    \nframe=  295 fps=1.0 q=47.8 size=     512KiB time=00:00:04.88 bitrate= 859.0kbits/s speed=0.0164x elapsed=0:04:56.93    \nframe=  296 fps=1.0 q=47.7 size=     512KiB time=00:00:04.90 bitrate= 856.1kbits/s speed=0.0165x elapsed=0:04:57.50    \nframe=  297 fps=1.0 q=44.9 size=     512KiB time=00:00:04.91 bitrate= 853.2kbits/s speed=0.0165x elapsed=0:04:58.07    \nframe=  297 fps=1.0 q=44.9 size=     512KiB time=00:00:04.91 bitrate= 853.2kbits/s speed=0.0165x elapsed=0:04:58.62    \nframe=  297 fps=1.0 q=44.9 size=     512KiB time=00:00:04.91 bitrate= 853.2kbits/s speed=0.0164x elapsed=0:04:59.17    \nframe=  299 fps=1.0 q=47.7 size=     512KiB time=00:00:04.95 bitrate= 847.4kbits/s speed=0.0165x elapsed=0:04:59.72    \n[mp4 @ 0000026ed7dcb800] Starting second pass: moving the moov atom to the beginning of the file\n[out#0/mp4 @ 0000026ed7dbae00] video:622KiB audio:0KiB subtitle:0KiB other streams:0KiB global headers:2KiB muxing overhead: 1.126140%\nframe=  300 fps=1.0 q=47.9 Lsize=     629KiB time=00:00:04.96 bitrate=1037.1kbits/s speed=0.0166x elapsed=0:04:59.82    \nx265 [info]: frame I:      2, Avg QP:44.20  kb/s: 3376.32 \nx265 [info]: frame P:     76, Avg QP:42.84  kb/s: 2067.98 \nx265 [info]: frame B:    222, Avg QP:47.01  kb/s: 635.65  \nx265 [info]: Weighted P-Frames: Y:0.0% UV:0.0%\n\nencoded 300 frames in 299.01s (1.00 fps), 1016.78 kb/s, Avg QP:45.93\n",
  "seconds": 300.40500688552856,
  "probe_out": {}
}